<svg xmlns="http://www.w3.org/2000/svg" viewBox="0 0 595.279 595.279">
  <path d="M297.64 0C133.258 0 0 133.258 0 297.64s133.258 297.64 297.64 297.64 297.64-133.258 297.64-297.64S462.022 0 297.64 0zm113.183 507.948c-13.872 14.592-30.17 25.9-48.44 33.615-17.58 7.422-36.146 11.186-55.182 11.186-24.795 0-46.672-4.972-65.02-14.774-19.228-10.272-35.29-26.23-47.743-47.436-.54-.917-1.523-1.48-2.587-1.48h-1.42c-1.583 0-2.894 1.23-2.994 2.81l-3.362 53.1h-47.08c1.312-22.575 2.645-55.906 2.645-85.46V48.52h55.57v212.13c0 1.657 1.342 3 3 3h1.42c1.073 0 2.066-.575 2.6-1.506 10.948-19.065 26.007-33.98 44.762-44.336C266.747 206.9 290.1 201.37 316.4 201.37c20.612 0 39.965 4.17 57.52 12.39 17.143 8.028 32.224 19.748 44.823 34.834 12.653 15.15 22.494 33.32 29.25 54.008 6.95 21.292 10.477 44.796 10.477 69.858 0 55.85-16.477 102.7-47.647 135.488zM295.87 247.21c-41.75 0-81.38 29.72-94.12 76.43-2.12 7.78-3.54 16.28-3.54 26.18v60.86c0 7.78.71 15.57 2.83 22.65 11.32 43.17 48.12 72.89 93.41 72.89 65.81 0 104.03-53.08 104.03-131.63 0-68.64-35.38-127.38-102.61-127.38z"/>
</svg>
