<?xml version="1.0" encoding="utf-8"?>
<!-- Generator: Adobe Illustrator 15.0.0, SVG Export Plug-In . SVG Version: 6.00 Build 0)  -->
<!DOCTYPE svg PUBLIC "-//W3C//DTD SVG 1.1//EN" "http://www.w3.org/Graphics/SVG/1.1/DTD/svg11.dtd">
<svg version="1.1" id="icn--clock" xmlns="http://www.w3.org/2000/svg" xmlns:xlink="http://www.w3.org/1999/xlink" x="0px" y="0px"
	 width="595.275px" height="595.281px" viewBox="123.307 0 595.275 595.281" enable-background="new 123.307 0 595.275 595.281"
	 xml:space="preserve">
<path d="M593.112,126.012c-46.16-42.825-95.988-61.813-164.658-61.813c-64.368,0-132.567,27.47-174.788,59.372l44.446,37.902
	c0,0,66.39-46.454,130.342-46.454c72.328,0,123.455,48.229,123.455,48.229L593.112,126.012z M417.281,123.299v0.02"/>
<polygon fill="#FFFFFF" points="498.112,68.807 443.445,122.012 526.779,156.807 580.112,108.807 "/>
<title>clock</title>
<polygon points="364.501,231.343 427.562,231.343 604.902,53.982 573.562,22.682 443.835,152.942 "/>
<path display="none" d="M420.944,63.262l0.01-0.02c-47.651,0-92.369,12.546-131.053,34.496
	c17.323,15.619,37.306,28.341,59.192,37.422c22.379-8.273,46.584-12.798,71.861-12.798c28.142,0,54.953,5.608,79.393,15.751
	c22.249-8.229,42.685-20.169,60.564-35.073C520.247,77.832,472.298,63.262,420.944,63.262z"/>
<path d="M608.066,140.217c-14.751,13.51-27.854,32.539-45.371,42.478c41.976,37.848,65.16,85.502,65.16,146.568
	c0,114.381-92.5,206.9-206.901,206.9v-0.02c-114.38,0-206.899-92.5-206.899-206.9c0-63.933,23.03-112.206,68.508-150.136
	c-17.112-10.604-33.508-24.879-47.736-38.967c-53.062,48.633-79.872,111.471-79.872,189.103c0,146.88,118.8,266.02,265.999,266.02
	c146.901,0,266.021-119.1,266.021-266C686.975,255.319,656.781,188.429,608.066,140.217z"/>
<path d="M200.559,178.465C248.614,247.04,338.15,288.14,428.453,288.14c85.611,0,165.841-42.619,214.503-105.449l-34.891-42.475
	c0,0-70.303,90.237-179.612,89.257S234.827,140.14,234.827,140.14L200.559,178.465z M428.453,220.923v-0.02"/>
</svg>
