<svg xmlns="http://www.w3.org/2000/svg" viewBox="0 0 595.28 595.28">
  <path fill="#010101" d="M112.06 367.4c-.13 12.86-6.63 26.95-16.62 35.93-4.43 4-9.57 6.07-15.22 5.78-4.96-.2-10.43-3.9-14.57-8.1-9.5-9.6-15.1-24.3-13.98-37.2 1.17-13.5 12.6-23.8 25.56-26.3 18.16-3.3 34.6 12.2 34.83 30 .1 9 14.04 9 13.93 0-.2-16.3-9.1-31.3-23.5-39-14.4-7.7-32.7-6.6-46 2.8-13.2 9.3-20.4 25.1-18.7 41.1 1.6 15.3 8.9 30.7 20.4 41 6.3 5.8 14.1 9.5 22.7 9.9 8.8.5 17-3.8 23.6-9.3 13-10.8 21.1-29.5 21.3-46.3.1-8.93-13.9-8.92-14 0z"/>
  <path fill="#010101" d="M149.48 467.64v29.8l6.97-6.98H7.12l6.96 6.97v-16.86c0-5.95-.6-12.63.44-18.34 1.86-10.34 8.54-18.5 17.87-23.1 6.7-3.3 14.4-2.76 21.9-2.76l-6.1-3.45 27.6 37.67c3.2 4.4 8.8 4.4 12 0l27.3-37.7-6 3.4c8.6 0 16.5-.3 24.2 4 9.9 5.4 15.8 16.1 16 27.3.1 8.9 14 9 13.9 0-.2-16.3-8.8-31.2-22.9-39.4-6.7-3.9-14.7-5.9-22.4-5.9-5.1 0-11.5-1.3-14.9 3.4l-27 37.5-.2.2h12l-27.3-37.3c-3.4-4.7-8.3-3.8-13.4-3.8-7 0-13.7 1.1-20.1 3.92C12 432.9 2.5 447.02.4 463c-.74 5.74-.26 11.8-.26 17.54v16.86c0 3.8 3.17 6.97 6.97 6.97h149.4c3.8 0 7-3.17 7-6.97v-29.8c0-8.96-13.9-8.96-13.9 0zM543.93 367.4c-.13 12.86-6.63 26.95-16.62 35.93-4.4 4-9.5 6.07-15.2 5.78-4.9-.2-10.4-3.9-14.5-8.1-9.5-9.6-15.1-24.3-14-37.2 1.2-13.5 12.6-23.8 25.6-26.3 18.2-3.3 34.6 12.2 34.9 30 .1 9 14.1 9 14 0-.2-16.3-9-31.3-23.4-39-14.4-7.7-32.6-6.6-46 2.8-13.2 9.3-20.4 25.1-18.7 41.1 1.6 15.3 8.98 30.7 20.4 41 6.4 5.8 14.1 9.5 22.77 9.9 8.85.5 17.04-3.8 23.65-9.3 13.06-10.8 21.17-29.5 21.34-46.3.07-8.93-13.86-8.92-13.95 0z"/>
  <path fill="#010101" d="M581.34 467.64v29.8l6.97-6.98H439l6.96 6.97v-16.86c0-5.95-.6-12.63.44-18.34 1.86-10.34 8.55-18.5 17.87-23.1 6.74-3.3 14.4-2.76 21.9-2.76l-6-3.45 27.6 37.67c3.24 4.4 8.78 4.4 12.02 0l27.3-37.7-6 3.4c8.6 0 16.5-.3 24.2 4 9.9 5.4 15.8 16.1 16 27.3.1 8.9 14 9 13.9 0-.2-16.3-8.9-31.2-22.9-39.4-6.7-3.9-14.7-5.9-22.4-5.9-5.2 0-11.5-1.3-14.9 3.4l-27.2 37.4-.2.2h12c-9.1-12.5-18.3-24.9-27.4-37.4-3.4-4.7-8.3-3.8-13.5-3.8-7.06 0-13.7 1.1-20.2 3.93-15 6.54-24.46 20.7-26.57 36.65-.73 5.7-.25 11.76-.25 17.5v16.87c0 3.8 3.2 7 7 7H588c3.8 0 6.95-3.2 6.95-7v-29.8c0-8.98-13.97-8.98-13.97 0zM328 60.26c-.13 12.85-6.63 26.94-16.62 35.92-4.43 4-9.57 6.07-15.22 5.78-4.96-.26-10.43-3.94-14.57-8.13-9.5-9.6-15.1-24.3-14-37.27 1.1-13.53 12.6-23.88 25.5-26.3 18.1-3.36 34.6 12.2 34.8 30 .1 8.98 14 9 13.9 0-.2-16.27-9.1-31.28-23.5-39.03-14.4-7.76-32.7-6.63-46.1 2.75-13.2 9.25-20.4 25.07-18.7 41.08 1.6 15.25 8.9 30.66 20.4 40.97 6.3 5.73 14.1 9.46 22.7 9.9 8.8.46 17-3.87 23.6-9.35 13.05-10.8 21.16-29.53 21.33-46.32.1-9-13.83-8.98-13.9 0z"/>
  <path fill="#010101" d="M365.4 160.5v29.78l6.97-6.97H223.03l6.96 7v-16.8c0-5.9-.6-12.6.4-18.3 1.8-10.3 8.5-18.5 17.8-23.1 6.7-3.3 14.4-2.7 21.9-2.7l-6-3.4 27.6 37.7c3.2 4.4 8.8 4.5 12 0L331 126l-6.07 3.44c8.64 0 16.54-.25 24.22 3.98 9.93 5.5 15.85 16.1 16 27.3.1 9 14.02 9 13.9 0-.2-16.23-8.83-31.12-22.9-39.3-6.7-3.9-14.64-5.9-22.4-5.9-5.1 0-11.5-1.22-14.9 3.47l-27 37.2-.2.3h12.05c-9.1-12.5-18.23-24.9-27.34-37.4-3.42-4.7-8.3-3.8-13.42-3.8-7.03 0-13.7 1.13-20.17 3.96-15 6.57-24.4 20.7-26.53 36.7-.75 5.7-.27 11.75-.27 17.5v16.86c0 3.8 3.1 6.96 6.9 6.96h149.4c3.8 0 6.9-3.2 6.9-6.98v-29.8c0-8.98-13.94-8.98-13.94 0zM72.9 287.4c13.96-64.4 55.24-120.25 112.6-152.6 1.45-.8 2.9-1.6 4.35-2.38 7.92-4.25.88-16.28-7.03-12.03-59.16 31.7-103.42 87.5-120.75 152.4-.96 3.6-1.8 7.2-2.6 10.8-1.9 8.7 11.54 12.4 13.44 3.7zm334.28 250.13c-67.64 36.6-151 36.64-218.7.13-1.65-.9-3.27-1.8-4.9-2.73-7.8-4.46-14.82 7.58-7.02 12.03 33.75 19.25 71.6 30.13 110.4 31.96 39.28 1.85 78.57-6.27 114.18-22.76 4.43-2.05 8.78-4.27 13.07-6.6 7.9-4.27.9-16.3-7-12.03zm-7.42-408.1c58.66 29.4 102.75 82.85 119.93 146.25.7 2.6 1.3 5.22 1.9 7.85 2 8.75 15.5 5.04 13.4-3.7-15.4-65.38-58-122.36-116.1-155.9-4-2.3-8.1-4.47-12.2-6.53-3.4-1.7-7.5-.93-9.6 2.5-1.9 3.1-.9 7.82 2.5 9.52zM232.32 429.3c23.28 23.03 57 32.2 88.76 24.33 32-7.93 57.6-33.65 66.5-65.2 8.84-31.35-.23-65.58-22.5-89.12-22.47-23.7-56.66-33.2-88.34-26.1-32.17 7.3-58.2 32.6-67.76 63.9-9.5 31.2-1.04 65.5 20.64 89.5.87 1 1.78 1.9 2.7 2.9 6.32 6.4 16.17-3.4 9.85-9.8-21.5-21.7-28.42-53.5-18.63-82.2 9.75-28.6 36.98-49.4 66.75-52.2 30.5-2.9 60.2 12.37 75.9 38.8 15.3 25.95 13.9 58.7-2.5 83.78-12.8 19.54-34.9 32.54-58 34.7-23.5 2.26-46.8-6.13-63.6-22.8-6.4-6.3-16.3 3.56-9.9 9.9z"/>
  <path fill="#010101" d="M257.12 369.78c8.06 7.55 16.1 15.1 24.17 22.64 2.7 2.6 7.1 2.75 9.8 0l47.7-47.77c6.3-6.36-3.5-16.2-9.9-9.85l-47.8 47.77h9.9l-24.2-22.64c-6.6-6.14-16.4 3.7-9.9 9.85z"/>
</svg>
