<?xml version="1.0" encoding="utf-8"?>
<!-- Generator: Adobe Illustrator 15.0.0, SVG Export Plug-In . SVG Version: 6.00 Build 0)  -->
<!DOCTYPE svg PUBLIC "-//W3C//DTD SVG 1.1//EN" "http://www.w3.org/Graphics/SVG/1.1/DTD/svg11.dtd">
<svg version="1.1" id="Layer_1" xmlns="http://www.w3.org/2000/svg" xmlns:xlink="http://www.w3.org/1999/xlink" x="0px" y="0px"
	 width="595.28px" height="595.28px" viewBox="123.31 0 595.28 595.28" enable-background="new 123.31 0 595.28 595.28"
	 xml:space="preserve">
<path d="M610.05,218.68c-0.06-0.18-0.14-0.34-0.24-0.49c-4.21-10.62-22.87-17.24-55.49-19.7c-6.49-0.49-13.77-0.75-21.05-0.75
	c-25.1,0-85.09,3.11-99.93,31.95c-4.85,9.41-4.64,21.13,0.59,33.11c-11.48,8.35-21.43,18.92-29.1,30.88
	c-0.46-9.67-0.69-19.22-0.69-28.46c0-19.79,0.92-39.64,2.75-59.01c10.09-5.2,18.22-13.48,23.16-23.56c7.01,3.32,14.49,5,22.26,5
	c28.89-0.04,52.4-23.55,52.4-52.39c0.1-14.84-6.13-28.85-17.17-38.74c8.51-10.13,12.84-22.9,12.21-36.18
	c-0.66-13.97-6.73-26.84-17.09-36.23c-9.67-8.79-22.18-13.63-35.24-13.63c-10.32,0-20.24,2.99-28.83,8.65
	c-9.93-13.28-25.58-21.15-42.25-21.15c-10.53,0-20.72,3.13-29.47,9.07c-14.29,9.78-22.82,25.94-22.82,43.25
	c0,1.59,0.08,3.2,0.23,4.83C311.2,57,299.5,63.65,291.13,74c-8.81,10.9-12.83,24.57-11.34,38.48c2.83,26.26,24.59,46.16,50.87,46.77
	v0.27c-0.08,28.79,23.28,52.3,52.08,52.41c2.56,0,5.1-0.18,7.56-0.53c-1.45,17.74-2.19,35.79-2.19,53.69
	c0,9.51,0.21,18.53,0.65,27.38c-2.29-2.69-4.81-5.33-7.62-7.97c5.99-9.25,8.05-18.84,5.8-27.14c-7.85-28.68-64.27-38.22-81.34-40.45
	c-9.02-1.32-18.3-1.99-27.58-1.99c-4,0-8.08,0.12-12.16,0.37c-14.55,1.05-22.99,4.42-26.58,10.59c-7.51,12.88,7.1,24.37,42.39,52.11
	l1.11,0.87c0.14,0.11,0.28,0.19,0.43,0.26c24.12,18.88,38.74,30.27,55.31,30.27c1.19,0,2.25-0.09,3.38-0.18l0.38-0.03
	c10.65-1.38,20.48-5.82,28.53-12.87c5.88,5.55,10.84,11.93,14.76,18.98c3.11,5.63,5.37,11.64,6.74,17.86
	c0.29,2.7,0.59,5.42,0.92,8.12H233.3c-0.6,0-1.17,0.27-1.54,0.73c-0.38,0.46-0.53,1.07-0.42,1.66l49.67,251.75
	c0.19,0.94,1.01,1.61,1.96,1.61h256.7c0.95,0,1.77-0.67,1.96-1.6l51.56-251.6c0.12-0.59-0.03-1.2-0.41-1.67
	c-0.38-0.46-0.95-0.74-1.55-0.74H409.19c-0.26-3.45-0.75-6.98-1.47-10.51c-0.11-0.99-0.21-1.98-0.3-2.98l-0.1-0.96
	c5.77-20.2,18.18-38.08,35.07-50.58c7.53,9.43,17.95,16.35,29.55,19.58c3.22,0.84,6.54,1.27,9.88,1.27
	c17.09,0,36.29-10.48,65.36-26.34c20.21-11.01,36.17-19.7,46.57-26.7l0.16-0.11C600.42,239.63,613.97,230.43,610.05,218.68z
	 M368.37,274.24c-8.34-5.82-17.22-10.66-26.43-14.4c-1.02-0.41-2.18,0.07-2.6,1.09l-4.65,11.3c-0.2,0.49-0.2,1.05,0.01,1.54
	c0.21,0.49,0.6,0.88,1.1,1.08c7.51,3,14.72,6.82,21.47,11.36c-5.02,3.73-10.93,6.18-17.24,7.1c-0.17,0.02-0.32,0.07-0.47,0.13
	c-0.43,0.03-0.85,0.04-1.28,0.04c-10.74,0-22.46-8.82-45.85-27.16l-0.74-0.58c-15.67-12.33-33.24-26.16-37.39-32.03
	c3.17-1.22,10.59-2.56,22.66-2.56c9.96,0,25.96,0.92,45.61,5.3c26.94,5.94,46.02,15.87,48.6,25.27
	C372.08,265.13,371.07,269.61,368.37,274.24z M382.58,195.24c-3.05,0-6.11-0.39-9.1-1.16c-15.43-3.93-26.37-17.46-27.15-33.26
	c0.24-0.33,0.38-0.74,0.39-1.17c0.02-2.48,0.29-4.95,0.81-7.36l1.8-8.8c0.13-0.65-0.06-1.32-0.52-1.79
	c-0.46-0.47-1.12-0.69-1.77-0.58l-8.79,1.5c-1.95,0.32-3.93,0.48-5.89,0.48c-17.82,0-32.84-12.8-35.71-30.43
	c-3.21-19.73,10.19-38.39,29.87-41.6c2.03-0.32,3.79-0.48,5.39-0.48l1.71,0l8.5,0.4c0.03,0,0.06,0,0.09,0c0.01,0,0.01,0,0.02,0
	c1.1,0,2-0.9,2-2c0-0.29-0.06-0.57-0.18-0.83l-2.32-7.93c-5.58-19.19,5.46-39.34,24.62-44.92c3.31-0.98,6.74-1.48,10.17-1.48
	c13.79,0,26.58,8.06,32.58,20.52l3.62,7.6c0.28,0.58,0.82,0.99,1.45,1.11c0.64,0.11,1.29-0.09,1.75-0.54L422,36.6
	c6.84-6.88,15.94-10.67,25.63-10.67c9.65,0,18.73,3.76,25.58,10.58c6.87,6.84,10.66,15.95,10.67,25.64
	c0.01,9.65-3.73,18.72-10.53,25.52c-0.97,0.95-2.12,2.04-3.32,2.9c-0.03,0.02-0.06,0.04-0.08,0.06l-6.8,5.43
	c-0.51,0.41-0.79,1.04-0.75,1.69c0.04,0.65,0.4,1.24,0.96,1.58l7.41,4.51c17.15,10.23,22.8,32.48,12.61,49.59
	c-6.51,10.92-18.45,17.7-31.14,17.7c-6.46,0-12.83-1.76-18.46-5.12c-1.17-0.65-2.16-1.35-3.38-2.23l-7.3-5.5
	c-0.53-0.4-1.23-0.51-1.86-0.29c-0.63,0.22-1.11,0.74-1.28,1.38l-2.3,8.73C413.51,184.07,399.08,195.24,382.58,195.24z
	 M573.65,357.8L527.92,581H294.38L250.4,357.8H573.65z M540.6,256.49c-0.4-0.04-0.81,0.03-1.18,0.23
	c-29.34,16.01-45.23,24.37-57.65,24.37c-2.08,0-4.04-0.23-5.92-0.69c-7.78-2.19-14.59-6.55-19.81-12.67
	c12.59-6.79,26.12-11.66,40.26-14.46c0.52-0.1,0.98-0.41,1.28-0.86c0.29-0.45,0.4-0.99,0.29-1.51l-2.5-11.9
	c-0.23-1.08-1.27-1.77-2.35-1.55c-15.94,3.23-31.11,8.79-45.07,16.52c-2.29-6.4-2.33-12.45-0.05-16.85
	c7.13-13.88,41.18-23.21,84.72-23.21h1.98c35.09,0.28,55.44,6.49,59.79,9.67C590.12,229.47,563,244.29,540.6,256.49z M341.06,438.37
	l11.3,4.5c0.49,0.2,1.05,0.19,1.54-0.02c0.49-0.21,0.87-0.61,1.07-1.11c9.72-24.84,34.23-41.53,61-41.53c1.2,0,2.42,0.03,3.63,0.1
	c0.33,0.02,0.66-0.05,0.96-0.19c20.23,1.31,38.4,11.75,49.7,28.36l-34.32-11.11c-0.51-0.16-1.06-0.12-1.53,0.12
	c-0.47,0.24-0.83,0.66-0.99,1.17l-2.96,9.2c-0.34,1.05,0.24,2.18,1.29,2.52l54.84,17.74c0.2,0.06,0.41,0.1,0.62,0.1
	c0.34,0,0.67-0.09,0.97-0.25c0.49-0.27,0.84-0.73,0.97-1.27l13.72-56c0.26-1.07-0.39-2.15-1.46-2.42l-9.33-2.3
	c-0.51-0.13-1.06-0.04-1.51,0.23c-0.45,0.28-0.78,0.72-0.91,1.24l-7.38,30.16c-15.39-21.19-39.83-33.7-66.25-33.7
	c-15.74,0-31.08,4.54-44.36,13.14c-14.45,9.39-25.41,22.79-31.71,38.74C339.53,436.8,340.03,437.96,341.06,438.37z M331.82,539.15
	l9.3,2.3c0.52,0.13,1.07,0.04,1.52-0.23c0.46-0.28,0.78-0.73,0.9-1.25l7.2-30.56c14.41,19.6,37.07,31.92,61.41,33.2
	c1.45,0.1,2.98,0.21,4.44,0.21c33.35,0,63.09-19.96,75.75-50.84c0.42-1.02-0.07-2.19-1.09-2.61l-11.2-4.6c-0.49-0.2-1.04-0.2-1.53,0
	c-0.49,0.21-0.88,0.6-1.08,1.09c-10.18,24.81-34.05,40.84-60.82,40.84c-8.53,0-16.9-1.66-24.88-4.93
	c-11.62-4.71-21.74-12.81-28.97-23.07l34.32,10.83c0.51,0.16,1.06,0.11,1.53-0.14c0.47-0.25,0.83-0.67,0.98-1.18l2.8-9.1
	c0.32-1.05-0.26-2.17-1.31-2.5l-55-17.3c-0.53-0.17-1.11-0.11-1.59,0.17c-0.48,0.27-0.83,0.74-0.96,1.28l-13.2,56
	C330.1,537.82,330.75,538.89,331.82,539.15z M431,105.09c0-17.81-14.48-32.29-32.28-32.29c-17.8,0-32.28,14.49-32.28,32.3
	c0,17.79,14.48,32.27,32.28,32.27h0C416.5,137.35,430.98,122.87,431,105.09z M410.1,116.47c-2.97,2.98-6.88,4.65-11.1,4.71
	c-0.09-0.01-0.18-0.02-0.27-0.02c-8.87,0-16.08-7.21-16.08-16.08c0-8.88,7.21-16.1,16.08-16.1s16.08,7.22,16.08,16.11
	C414.82,109.38,413.15,113.42,410.1,116.47z"/>
</svg>
