<svg xmlns="http://www.w3.org/2000/svg" viewBox="0 0 566.93 124.72">
  <path fill="#008943" fill-rule="evenodd" stroke="#008943" stroke-width="2.13" stroke-miterlimit="2.61" d="M138.1 87.75c13.48-.78 33.46-7.17 25.4-22.36-4.1-7.7-18.16-11.7-27.76-8.1.16-.88.3-1.78.35-2.7 2.34-34.63-52.5-41.7-77.22-34.1-.92-.46-2.03-.57-3.08-.2-2.08.7-3.2 2.98-2.48 5.06 7.05 24.18 2.25 58.8 4.48 69.8-16.04.36-31.26-1.77-47.28-4 20.33 7 48 9.68 69.15 6.25 13.84-2.23 34.74-10.54 46.86-23.27.27 2.33.87 4.9 1.88 7.76.2.5.38.98.58 1.45-.08.53-.06 1.08.1 1.63.3 1.2 1.15 2.13 2.2 2.6 13.37 19.4 51 7.8 56.5-7.45l1.14-5.05-2.42 4.47c-8.6 14.22-36.22 19-48.4 8.2zm-9-28.83c-6.54 22.2-42.42 34.22-62.92 35.84-2.53.2-5.04.32-7.52.4 5.14-18.13 6.48-47.85 3.17-67.5 19.78-6.43 76.64-.57 67.27 31.26zm4 21.15c-1.18-3.78-1.26-8.4.14-13.94.93-3.68 17.97-5.48 23.15.92 9.04 11.2-16.66 12.82-23.3 13.02zm267.22 6.38c-49.95 21.3-125.15 8.62-173.57-16.43 18.62-9.64 29.85-17.37 40.8-37.13.9-2.03 0-4.38-2.02-5.28-2-.9-4.38.02-5.27 2.03-9.85 18.44-28.12 28.98-37.9 34.9-.4-13.26-2.14-26.65-2.15-42.25-.04-2.2-1.87-3.95-4.08-3.9-2.2.06-3.95 1.9-3.9 4.1.95 19.4 3.12 32.03 4.25 46.1-.4.42-.64.78-.66 1.1-.04.74.28 1.52.92 2.32.64 9.74.7 20.44-.5 34.66 3.98-10.95 5.62-20.86 6.1-30.52 15.75 8.7 55.25 18.34 62.17 19.65 35.9 6.83 83.67 11.34 115.82-9.35zm-126.2-5.27c2.18.92 13.63-1.3 15.86-1.66-9.45-1.58-5.75-1.18-13.26-1.67 1.35-19.36 2.6-38.22 3.4-57.66 0-2.22-1.8-4-4-4s-4 1.8-4 4c.1 6.27-.87 59.8 2 60.98zm31.77-3.83c10.14-5.5 8.25-26.97 4.6-28.33-.15 6.93.4 17.64-5.4 22.52-10.85 9.13-8.23-15.74-7.22-19.98 1.1-1.9.44-4.35-1.48-5.45-1.9-1.1-4.35-.43-5.45 1.5-2.65 11.5-1.92 38.9 14.94 29.75zm13.4.23c2.2 0 4-1.8 4-4-.96-11.87-.74-7.57-1.04-15.96 3.66.4 3.83 4.28 4.6 7l.04.33.05-.02c.53 1.68 1.4 2.8 3.66 2.07.85-.27 1.25-1.8 1.54-3.7l.33-.1c-.06-.32-.12-.63-.2-.94.54-4.12.8-9.13 3.56-7.32 5.68 3.75 2.7 17.18 1.82 22.24 1.9-3.12 4.3-6.23 4.76-9.96 2.2-17.4-9.04-20.93-13.76-13.58-2.27-2.7-5.64-3.95-10.7-2.54-5.35 1.48-2.8 16.97-2.65 22.5 0 2.2 1.8 3.98 4 3.98zm27.06-9.4l-1 .05c.36.15.7.26 1.04.4.73 8.7.95 19.13 2.3 26.2 1.67-7.5 3.55-15.97 4.1-24.33 21.84 4.26 34.3-15.28 22.52-23.34-4.78-3.28-30.35-5.02-31.34 4.9-.56 1.17-.55 2.6.16 3.78 1.15 2.8 1.78 7.26 2.22 12.34zm5.75-14.03c6.83-2.44 10.36-2.77 18.64-2.27 9.3 4.33-1.78 14.75-12.3 15.73-1.84.18-3.68.27-5.52.33.14-4.37-.14-8.7-1.04-12.8.12-.3.2-.64.23-.98zM404.7 71c6.76-6.68 5.28-15.72 1.78-23.55-.5-1.1-1.12-1.85-2.33-1.4.27.38.6.73.7 1.17 1.2 5.13 1.9 13.73-1.76 18.15-11.23 13.53-12.5-10.97-12.7-17.1 0-2.2-1.78-4-3.98-4-2.22 0-4 1.8-4 4 1.07 11.12 6.95 37.9 22.28 22.74zm123.4-17c-11.04-4.65-27.54-5.17-35.9 3.66-3.15-7.58-16.87-10.03-30.64-10.5 5.83-2.73 10.96-6.4 14.38-11.58C499.5.04 415.1 9.98 414.8 33.02c.13 2.2 2.02 3.88 4.22 3.75 2.2-.13 3.88-2.02 3.75-4.22-.05-1.5 2.34-3.38 6.1-5.23.2 6.14.48 14.1.86 22.6-2.25 1.26-2.63 2.7.06 4.67l.15.04c.7 14.35 1.67 29.45 3.02 39.4-33.27 9.43-73.22 15.18-91.6 15.03-23.42-.2-49.7-2.8-72.85-6.97 16.44 6.4 55.07 9.76 72.77 10.3 17.68.54 58-4.1 92.48-13.34.17.9.35 1.76.54 2.5.12-.9.22-1.82.33-2.73 23.8-6.45 44.66-15.1 53.16-25.78 4.07 15.28 32.8 21.7 37.47.77 1.34 4.77 2.62 9.16 3.05 10.13-.4-5.3-.63-11.97-1.72-17.92.1-1.23-.05-2.38-.84-3.77l-.2-.74c1.76.38 3.62-.5 4.42-2.2.93-1.98.08-4.36-1.9-5.3zm-91.5-29.8c17.44-5.95 43.92-8.92 33.32 7.4-6.08 9.36-22.94 12.85-33.35 15.84 0-8.04-.05-15.9.04-23.24zm44.27 48.16c-8.26 8.03-25.6 15.22-45.65 21.06 1.1-12.15 1.32-25.66 1.34-39 18.6-1.2 67.37-4.48 44.3 17.94zm40.6-1.2c-3.25 18.55-29.7 9.7-27.5-2.87 1.92-11.04 17.4-11.6 27.6-8.27v.3c-.36 6.34 2.06-1.64-.1 10.82zm16.02 14.95h.1v-.02c-.1-.85.02-1.23.15-2.1 3.4-23.33 2.1-44.1 3.18-67.3.05-2.2-1.7-4.04-3.9-4.08-2.2-.05-4.04 1.7-4.08 3.9.12 22.65 2.12 44.12 1.97 67.18-.06 7.4 3.67 3.52 8.1 3.33-.6-2.34-4.76-.42-5.53-.9zm14.95-36.9c-2.2 0-4 1.8-4 4 .7 12.12.46 19.62 3.45 31.6 3.27-11.85 3.6-19.5 4.55-31.6 0-2.22-1.8-4-4-4z" clip-rule="evenodd"/>
</svg>
