<svg id="Layer_1" xmlns="http://www.w3.org/2000/svg" viewBox=".445 595.14 760 190">
  <path id="hut" fill="#B7824A" d="M120.028 760.84c-23.567 8.807-42.45 13.087-57.727 13.087-13.66 0-24.24-3.507-31.43-10.423-10.29-9.89-7.72-42.89-3.66-61.537.75-1.414.31-3.2-1.06-4.098-.51-.34-1.11-.52-1.72-.52-1.06 0-2.05.53-2.63 1.42l-.14.21-.05.25c-4.05 17.93-8.23 47.47 2.73 64.26-.32.04-.64.13-.94.28-1.56.74-2.23 2.63-1.48 4.19l.06.1c6.19 10.7 19.34 16.36 38.02 16.36 21.47 0 46.49-7.4 60.1-14.7l-1.2-2.57c-8.9 3.62-29.65 10.12-50.06 11.46 21.89-1.82 43.45-11 52.32-15.19l-1.1-2.61zM36.42 773.823c4.764 2.327 10.186 3.868 16.216 4.612-6.532-.71-11.947-2.252-16.216-4.612zm112.62-72.88c-1.638-1.05-1.733-1.097-3.395-1.665-.564-.193-1.337-.458-2.47-.87-36.806-13.324-62.9-51.483-62.045-90.764 0-1.433-.416-2.798-1.207-3.98.023-.537.042-1.08.053-1.64 0-3.406-2.77-6.178-6.178-6.178-3.407 0-6.18 2.77-6.18 6.21.017.726.02 1.45.012 2.174-.57 1.05-.87 2.225-.868 3.444.038 1.702.124 3.44.264 5.308-3.088 23.89-17.833 46.08-38.604 58.193-.558-.37-1.22-.577-1.91-.577l-.198.008c-16.93 1.542-26.1 5.785-25.82 11.95.417 9.144 21.602 16.307 48.232 16.308h.003c11.74 0 23.99-1.336 36.44-3.972.94 17.365 3.25 35.44 7.44 58.298l2.81-.348c-.48-7.346-1.11-14.77-1.72-21.948-1.04-12.24-2.12-24.886-2.45-37.395 3.58-.88 7.14-1.85 10.6-2.9l-.7-2.75c-3.41.71-6.69 1.34-9.97 1.9-.05-.44-.21-.87-.49-1.25-.5-.68-1.31-1.13-2.23-1.24-1.71-.22-3.25.81-3.53 2.27l-.03.16.04 1.04c-10.01 1.44-19.53 2.12-29.83 2.12-6.17 0-12.86-.24-20.46-.74-14.87-.98-27.54-6.46-27.63-9.38-.01-.54.66-1.35 2.64-2.19l.76 2.23c26.02-2.63 49.18-20.1 61.26-45.93 6.96 21.72 20.89 40.96 38.68 53.28.4 22.99 3.11 44.02 5.72 64.35l2.82-.21c-.19-9.15-.66-18.25-1.12-27.06-.57-10.81-1.14-21.96-1.18-33.13 10.6 6.12 22.04 9.84 34.04 11.05l.89-2.62c-1.17-.72-1.96-1.23-2.54-1.6zm-71.68-40.865c-.49-1.854-2.168-3.15-4.083-3.15-.363 0-.726.048-1.078.14-1.1.288-2.01.983-2.58 1.958-.57.975-.73 2.113-.44 3.205l.03.11c2.12 6.05 6.75 9.22 11.22 12.28.8.55 1.61 1.1 2.41 1.68l2.07-1.82-3.87-7.28-3.57-6.39-.14-.72z"/>
  <path id="de_x5F_klumpu_x5F_bali" fill="#008943" d="M562.81 667.65h.003c3.143 0 6.535-1.78 10.095-5.3 6.572-6.495 7.305-15.6 2.177-27.072-.287-.63-1.05-2.308-2.8-2.308-.35 0-.72.07-1.1.213l-1.304.484.81 1.132c.07.09.14.19.22.28.18.23.35.46.39.62 1.43 6.1 1.83 14.73-1.71 19.02-2.76 3.32-4.58 4.02-5.61 4.02-3.53 0-6-8.5-6.45-22.13 0-3.02-2.44-5.47-5.44-5.47-3.01 0-5.45 2.45-5.45 5.46l.01.1c1.11 11.49 5.76 30.92 16.2 30.93zm-135.17 5.83l.652.274c.53.224 1.295.327 2.41.327 3.758 0 10.76-1.23 14.123-1.82.64-.11 1.148-.2 1.475-.25l.006-2.1c-2.393-.4-4.017-.68-5.2-.89-3.224-.56-3.284-.57-6.54-.77l-1.867-.11c1.37-19.65 2.77-40.62 3.66-62.35 0-3.01-2.45-5.46-5.46-5.46s-5.46 2.45-5.46 5.48c.02 1.23 0 4.12-.03 8.12-.28 44.11.52 56.44 2.22 59.21v.37zm29.222-1.818c2.18 0 4.617-.723 7.243-2.147l.15-.087v-.003c4.528-2.532 6.975-7.7 8.032-13.184.09 1.32.194 2.6.294 3.82.15 1.77.27 3.29.3 4.39 0 2.99 2.45 5.43 5.45 5.44h.01c3.01 0 5.45-2.45 5.45-5.54-.27-3.39-.46-5.59-.59-7.14-.31-3.68-.31-3.68-.45-7.67l-.04-1.23c1.43.72 1.94 2.44 2.51 4.94.13.54.25 1.07.39 1.57l.25 1.61.28-.11c.48 1 1.41 2.22 3.25 2.22.53 0 1.09-.1 1.72-.3 1.45-.46 1.99-2.35 2.31-4.25l.65-.19-.18-.94c-.06-.3-.11-.6-.18-.89.06-.41.11-.83.16-1.25.18-1.5.74-6.08 1.52-6.08.05 0 .22.02.56.24 5.18 3.42 2.9 15.92 1.8 21.93-.1.53-.18 1.02-.26 1.44l1.96.74c.37-.6.75-1.2 1.14-1.81 1.86-2.92 3.79-5.94 4.24-9.55.95-7.47-.25-13.53-3.38-17.08-1.71-1.94-3.93-3.01-6.26-3.01-2.51 0-4.87 1.22-6.64 3.38-2.95-2.8-6.98-3.53-11.93-2.15-2.18.61-3.37 2.7-3.97 5.53-.4-2.87-1.35-6.95-3.57-7.78l-1.4-.52-.03 1.5-.03 2.49c-.08 7.16-.18 16.96-5.52 21.45-1.51 1.27-2.83 1.94-3.81 1.94-.62 0-1.12-.27-1.58-.85-3.02-3.83-1.83-17.54-.85-21.84.66-1.22.82-2.63.46-3.98-.38-1.41-1.29-2.59-2.56-3.32-.82-.47-1.75-.72-2.69-.72-1.96 0-3.78 1.06-4.75 2.77l-.12.29c-2.02 8.76-2.31 25.1 3.46 32.36 1.93 2.43 4.37 3.66 7.26 3.66zm50.04-14.14l-.354 2.006c.187.078.368.147.547.215.227 2.81.41 5.817.59 8.732.428 6.936.87 14.107 1.898 19.495l2.085.03c1.758-7.895 3.74-16.8 4.44-25.702 1.913.31 3.812.468 5.66.468 13.092 0 21.38-7.52 23.542-14.505 1.667-5.39-.14-10.52-4.835-13.73-2.546-1.74-9.45-3.01-16.42-3.01-5.598 0-18.65.88-19.65 8.99-.704 1.61-.61 3.42.257 4.92 1.244 3.09 1.872 8.17 2.24 12.11zm8.436-13.655c5.262-1.838 8.618-2.436 13.484-2.436 1.57 0 3.405.07 5.76.21 2.297 1.12 3.3 2.63 2.98 4.47-.732 4.23-8.176 9.94-16.326 10.7-1.456.15-2.99.25-4.87.32.08-4.66-.3-8.98-1.13-12.88.04-.12.073-.24.102-.37zm-16.224 52.325c28.412 0 51.57-5.63 68.82-16.733l-.587-1.97h-.218l-.2.08c-18.34 7.82-40.4 11.78-65.56 11.78-41.01 0-86.58-10.77-122.39-28.87 20.57-10.81 31.94-19.54 43.47-40.35 1.22-2.76-.02-5.99-2.76-7.21-.7-.32-1.44-.48-2.21-.48-2.16 0-4.12 1.27-4.96 3.17-10.19 19.06-28.55 30.26-39.7 36.99-.21-5.43-.6-10.84-1-16.53-.64-8.86-1.3-18.02-1.3-28.06-.05-2.94-2.5-5.34-5.45-5.34h-.13c-3 .08-5.39 2.59-5.32 5.62.65 13.29 1.8 23.5 2.91 33.38.64 5.74 1.26 11.18 1.72 16.84-.35.42-.66.93-.69 1.52-.05.98.29 1.98 1.03 2.99.78 12.1.6 23.71-.57 37.6l2.06.45c3.83-10.54 5.96-20.8 6.67-32.17 18.33 9.43 59.77 19.52 67.13 20.91 22.32 4.24 41.68 6.31 59.19 6.31zm222.817-19.374c-.77 0-1.57.135-2.27.253-.15.03-.31.06-.46.08.02-.18.05-.37.09-.61l.09-.52c2.5-17.11 2.69-32.68 2.9-49.16.11-8.04.21-16.36.61-24.9.04-1.46-.5-2.84-1.52-3.9-1.01-1.05-2.36-1.64-3.8-1.67h-.12c-2.94 0-5.39 2.39-5.44 5.36.06 11.61.58 23.12 1.08 34.26.58 12.79 1.17 26.02 1.09 39.53-.02 2.67.38 4.26 1.29 5.19.56.57 1.3.85 2.2.85.91 0 1.92-.28 2.98-.59 1.14-.32 2.32-.66 3.54-.71l1.31-.06-.32-1.27c-.24-.96-1-2.11-3.2-2.11zm-390.39-6.395c-5.33 8.816-18.53 14.976-32.1 14.977-6.85 0-12.88-1.606-17.31-4.568 10.21-1.048 22.37-4.75 26.63-12.316 2.25-3.994 2.04-8.564-.63-13.588-3.37-6.333-12.93-10.93-22.73-10.93-2.63 0-5.1.327-7.37.976.06-.434.1-.883.13-1.338.62-9.06-2.18-16.978-8.31-23.535-12.47-13.34-36.18-18.09-54.22-18.09-8.63 0-16.88 1.05-23.29 2.97-1.21-.48-2.6-.51-3.79-.09-1.37.47-2.48 1.44-3.13 2.75-.64 1.31-.73 2.79-.27 4.12 4.89 16.78 4.55 37.84 4.27 54.77-.14 8.84-.26 15.98.42 20.58-17.01.26-33.15-1.98-50.29-4.37l-.23-.03-.49 2.07c15.79 5.44 35.63 8.56 54.41 8.56 7.91 0 15.34-.55 22.08-1.65 15.05-2.42 36.91-11.03 50.58-24.36.39 2.11.99 4.34 1.82 6.67l.22.55c.1.27.21.54.32.81-.07.67-.01 1.31.16 1.9.38 1.49 1.37 2.73 2.74 3.44 5.21 7.37 14.15 11.42 25.21 11.42 16.99 0 34.65-9.19 38.58-20.08l1.29-5.67-1.97-.74-2.63 4.87zm-63.17-22.405c-6.83 23.206-44.73 36.76-68.18 38.613-2.08.17-4.31.3-6.77.39 5.26-19.77 6.69-50.92 3.28-72.29 4.9-1.44 11.61-2.22 19.06-2.22 17.19 0 40.55 4.4 49.82 16.81 3.96 5.29 4.9 11.59 2.8 18.72zm6.6 8.484c.3-1.162 4.59-2.85 10.65-2.85 5.93 0 10.76 1.595 12.93 4.27 1.75 2.16 2.26 3.944 1.56 5.457-2.12 4.6-14.89 6.68-25.52 7.08-1.07-4.01-.93-8.7.4-13.96zm459.5-19.915c-3.01 0-5.46 2.45-5.46 5.52.15 2.578.26 4.965.37 7.234.44 9.48.79 16.97 3.46 27.68l2.06.03c3.28-11.86 3.9-19.97 4.75-31.2l.29-3.8c0-3.01-2.45-5.46-5.45-5.46zm-26.32 5.377l-.01.022.01-.053c-5.67-2.388-12.29-3.703-18.65-3.703-8.65 0-16 2.448-20.91 6.926-3.61-6.063-13.65-9.63-29.91-10.63 5.56-3.11 9.71-6.817 12.65-11.26 4.83-7.28 5.98-13.385 3.43-18.143-3.16-5.896-11.83-9.145-24.39-9.145-19.97 0-47.95 9.082-48.14 23.95.18 2.983 2.74 5.282 5.76 5.12 1.45-.086 2.79-.732 3.76-1.82.97-1.09 1.45-2.49 1.37-3.914-.02-.57.98-1.996 4.63-3.99.19 5.743.48 13.77.86 22.524-1.26.827-1.9 1.74-1.97 2.777-.07 1.205.67 2.39 2.26 3.613.93 18.894 1.97 32.615 3.18 41.877-36.18 10.16-78.46 16.224-98.67 16.224l-.77-.01c-24.98-.22-54.09-3-79.85-7.64l-.57 2.04c18.82 7.33 62.23 10.84 80.3 11.39 1.02.03 2.12.05 3.27.05 20.94 0 62.07-5.06 97.54-14.45.14.64.26 1.2.39 1.69l2.08-.13c.09-.67.17-1.35.25-2.02l.04-.28c20.13-5.51 45.72-14.55 57.01-27.03 3.54 9.06 14.32 14.41 23.39 14.41 8.61 0 15.17-4.4 18.15-11.94 1.89 6.62 2.28 7.48 2.41 7.79l2.04-.51c-.09-1.3-.18-2.67-.27-4.1-.32-4.91-.68-10.47-1.6-15.57.09-1.39-.1-2.57-.64-3.78 1.83-.23 3.45-1.39 4.25-3.09 1.27-2.71.11-5.96-2.6-7.24zm-99.87-31.024c9.11-3.03 19.06-4.908 26.13-4.908 5.72 0 9.38 1.16 10.57 3.357 1.02 1.87.33 4.67-2.04 8.33-5.62 8.66-20.55 12.72-31.44 15.69-1.11.3-2.2.6-3.23.88v-5.55c-.01-6.23-.02-12.12.04-17.82zm46.82 51.38l.01.01c-7.9 7.68-24.55 15.42-48.2 22.43 1.12-13.26 1.31-27.75 1.34-40.39 5.87-.38 14.45-.914 22.87-.914 22.47 0 28.74 3.82 30.04 7.025 1.15 2.84-.88 6.82-6.04 11.84zm44.31-.76l-.01.1c-1.73 9.67-9.2 10.715-12.33 10.715-5.03 0-10.44-2.41-13.45-5.996-1.37-1.64-2.89-4.28-2.31-7.59 1.6-9.18 12.34-10.17 16.89-10.17 3.73 0 7.71.59 11.3 1.67-.09 2.18.13 3.07.9 3.64.08.54-.06 2.35-.97 7.61z"/>
  <path id="EcoTraditionalStay" fill="#B7824A" d="M351.217 731.947c-.208.042-.435.072-.684.094-.28.03-.56.06-.894.12-.49.14-.96.26-1.41.37-.49.13-.96.31-1.35.53-.67.29-1.38.71-2.12 1.27-.75.56-1.34 1.11-1.74 1.6l-.44.44c-.23.28-.51.63-.83 1.06-.17.23-.37.37-.6.42l-.1-.11c-.15-.28-.22-.62-.22-1.01v-1.34c0-.47-.06-.92-.19-1.35-.16-.53-.51-.91-1-1.09-.27-.11-.62-.18-1.08-.23-.43-.05-.86-.06-1.3-.03-.44.03-.85.09-1.21.19-.45.12-.77.32-.99.6-.28.39-.44.85-.46 1.37-.03.43-.04.9-.04 1.4v28.4c0 .51.01.99.03 1.47.03.57.18 1.06.45 1.43.15.23.38.4.7.5.19.07.39.14.61.23l1.39.04c.55 0 1.08-.02 1.56-.07.61-.06 1.09-.31 1.38-.71.3-.37.44-.8.41-1.29-.02-.33-.01-.73.03-1.2.04-.51.07-1.05.07-1.59v-9.81c0-.63-.02-1.3-.04-2-.02-.64.03-1.22.15-1.73.06-.27.07-.55.04-.82-.02-.18-.01-.35.02-.5.13-.55.25-1.09.34-1.62.08-.48.21-.96.36-1.39.56-1.25 1.24-2.38 2.02-3.35.75-.94 1.75-1.69 2.97-2.24.46-.21.96-.38 1.49-.51.55-.13 1.14-.26 1.79-.4.45-.12.92-.2 1.37-.22.64-.03 1.16-.29 1.5-.75.3-.36.45-.8.45-1.33v-1.28c0-1.04-.07-1.81-.22-2.37-.2-.76-.93-1.1-2.33-1.14zm37.394 32.855c0-.23-.07-.46-.18-.627-.25-.495-.65-.808-1.16-.905-.32-.06-.66-.172-1.06-.347-.26-.098-.47-.26-.62-.466-.18-.29-.29-.688-.33-1.184-.04-.56-.06-1.156-.06-1.776v-14.84c0-1.295-.03-2.56-.1-3.755-.07-1.24-.32-2.35-.74-3.293-.99-2.28-2.74-3.84-5.2-4.65-2.23-.73-4.87-1.11-7.82-1.11h-.73l-.09.09c-.06.01-.2.02-.41.01-.47-.03-.81-.01-.99.04-.48.09-.95.15-1.4.19-.49.04-.98.11-1.47.21-1.97.55-3.64 1.28-4.98 2.18-1.36.92-2.5 2.21-3.4 3.87-.23.51-.43 1.03-.59 1.57-.16.52-.31 1.08-.44 1.67-.11.44-.11.87.01 1.27.12.42.32.73.59.93.25.19.61.31 1.13.39.9.14 1.87.14 2.78 0 .52-.08.88-.21 1.12-.39.41-.29.69-.7.83-1.21.11-.39.23-.76.35-1.07.21-.47.46-.91.73-1.3.26-.38.55-.69.84-.92.68-.47 1.39-.83 2.09-1.08.51-.17 1.13-.3 1.85-.38 1.48-.18 3.12-.18 4.55 0 .69.08 1.29.23 1.8.43.86.33 1.52.77 1.98 1.33.47.57.83 1.36 1.08 2.36.15.58.16 1.1.01 1.57-.16.5-.36.92-.6 1.23-.51.71-1.18 1.14-2.04 1.31-.99.2-2.05.44-3.17.71-.33.08-.64.13-.92.15-.35.02-.7.09-1.02.18-.31.08-.6.12-.85.12-.33 0-.68.05-1 .14-.68.13-1.35.24-1.99.33-.68.09-1.36.23-2.02.42-1.68.5-3.24 1.07-4.63 1.7-1.47.67-2.65 1.7-3.5 3.07-.29.43-.53.92-.72 1.44l-.56 1.57c-.04.28-.08.55-.1.81-.02.23-.05.44-.11.75V759c0 1.44.22 2.7.64 3.74.56 1.41 1.3 2.52 2.18 3.305.86.77 2 1.467 3.39 2.07.35.15.72.26 1.11.33.35.067.7.142 1.02.223.21.07.37.09.64.044.02 0 .07.004.15.02.23.107.49.16.77.16.19 0 .38.02.67.067l.5-.01c.5.1 1.13.09 1.51.01h.5c.18 0 .4-.02.66-.07.49-.09.98-.16 1.46-.2.55-.05 1.07-.15 1.54-.29.78-.23 1.52-.5 2.21-.8.7-.3 1.35-.64 1.96-1.02.42-.28.85-.61 1.29-.98.37-.31.77-.52 1.18-.67.1.08.19.16.27.24.22.22.41.51.56.88.19.45.41.86.66 1.21.43.58 1.15 1.04 2.22 1.42.63.21 1.27.33 1.91.33.43 0 .86-.05 1.34-.16.57-.19 1.02-.09 1.55-.3.54-.27.97-.69 1.29-1.24.33-.58.42-1.29.26-2.13-.04-.18-.06-.33-.06-.44zm-10.09-9.11c-.02.76-.15 1.432-.4 2.017-.46 1.21-1.12 2.18-1.96 2.88-.87.72-1.95 1.35-3.2 1.87-.28.12-.56.19-.84.23-.35.04-.72.12-1.13.22-.2.07-.39.09-.61.08-.33-.03-.67.01-.98.12-.25.07-.59.1-1.01.08-.42-.02-.78-.07-1.1-.16-.44-.09-.97-.07-1.28-.12-.63-.21-1.23-.48-1.78-.8-.52-.3-.94-.67-1.25-1.1-.2-.28-.37-.6-.51-.94-.13-.32-.2-.67-.2-1.08-.04-.92.04-1.71.25-2.35.2-.62.5-1.16.9-1.6.41-.45.9-.83 1.48-1.14.59-.32 1.24-.59 1.9-.8.36-.09.68-.17.96-.23.3-.07.62-.15.99-.24.64-.17 1.33-.27 2.07-.29.79-.02 1.54-.13 2.24-.3.18 0 .35-.02.51-.04.13-.02.26-.03.47-.04l1.35-.27c.45-.09.87-.18 1.23-.27l.1-.04c.11-.05.24-.08.38-.08.25 0 .46-.04.63-.13.39.01.52.05.5.04.2.14.3.33.33.59.04.39.07.82.07 1.29 0 .89-.01 1.75-.03 2.57zm-146.15-.555c-.25-.192-.63-.312-1.15-.367-.45-.046-.91-.06-1.42-.035-.48.023-.94.07-1.36.14-.52.087-.86.228-1.01.39-.4.288-.68.654-.82 1.087-.12.348-.22.708-.29.997l-.53 1.2c-.17.38-.36.74-.57 1.07-.54.83-1.22 1.52-2 2.03-.8.53-1.77.97-2.88 1.31-.25.07-.48.1-.73.08-.35-.03-.71.01-1.1.12-.04.01-.07.02-.16.01-.06-.01-.12-.02-.18-.02l-1.23-.02c-.37 0-.48-.04-.57-.06-.45-.09-.73-.07-1-.11-.48-.18-.93-.36-1.35-.53-.41-.18-.81-.37-1.16-.57-1.1-.72-1.96-1.58-2.57-2.57-.62-1.02-1.18-2.24-1.65-3.59-.09-.35-.16-.71-.23-1.1-.06-.4-.14-.77-.23-1.12 0-.46-.03-.79-.08-.98-.03-.16-.03-.32 0-.48.06-.29.06-.58 0-.87l-.04-.13c-.01-.03-.07-.17-.05-.62.03-.46.06-.68.09-.78l.02-.57c.09-.27.13-.56.1-.87-.02-.22-.01-.42.02-.59l.4-1.79c.14-.49.27-.94.4-1.36.13-.41.28-.81.46-1.2.46-1.1 1.13-2.06 1.97-2.85.85-.8 1.84-1.45 2.89-1.9.29-.09.57-.15.82-.19.29-.05.6-.12.95-.22.56-.19 1.27-.28 2.13-.28h.26c.99.02 1.78.12 2.35.28.44.13.85.27 1.24.42.38.14.73.32 1.06.53 1 .62 1.82 1.49 2.46 2.59.2.32.36.7.48 1.14.16.6.47 1.07.93 1.42.39.28.87.43 1.41.46.6.03 1.26-.02 1.9.06.24.03.48.01.73-.05.08-.02.15-.03.27-.03l.16.01c.21 0 .41-.07.57-.18.39-.22.68-.48.85-.78l.05-.1c.11-.34.14-.73.09-1.16-.05-.4-.13-.72-.22-.96-.41-1.33-.93-2.48-1.53-3.41-1.34-2.09-3.19-3.67-5.48-4.72-2.18-.99-4.9-1.49-8.09-1.49l-.46.01c-.35.04-.68.08-.99.1-.324.02-.65.06-1.01.11-.62.13-1.21.24-1.783.33-.63.1-1.213.27-1.72.5-2.383.96-4.295 2.2-5.684 3.68-1.38 1.48-2.565 3.43-3.52 5.8-.28.7-.49 1.46-.63 2.25-.136.75-.29 1.5-.45 2.21-.11.33-.16.69-.13 1.07.02.25-.01.51-.08.78-.06.24-.075.48-.044.72.016.12.006.27-.03.44-.05.26-.074.6-.074 1.04 0 .44.03.78.07.94v.67l.03.16c.07.2.1.43.08.68-.025.38.02.73.12 1.03.03.14.05.28.05.41 0 .22.03.44.083.65.13.53.24 1.05.33 1.58.1.58.27 1.14.5 1.65l.54 1.34c.19.47.41.9.65 1.28.92 1.46 1.93 2.72 3.01 3.73 1.09 1.02 2.48 1.91 4.13 2.64.52.23 1.07.43 1.63.56.53.13 1.08.29 1.74.48l1.67.2h.26c.24.07.51.11.79.11.08 0 .15 0 .23-.01.32-.02.66-.03 1-.03h.6l.13-.02c.1-.02.18-.02.3 0 .27.07.55.04.81-.07.45-.08.9-.13 1.35-.15.54-.02 1.09-.13 1.6-.32.44-.13.86-.25 1.26-.36.43-.12.85-.28 1.21-.46 1.48-.65 2.77-1.52 3.82-2.59 1.03-1.06 1.91-2.3 2.6-3.67.32-.61.6-1.23.8-1.86l.654-1.96c.1-.47.11-.92.04-1.34-.09-.49-.34-.87-.7-1.12zm39.27-6.212c-.03-.176-.04-.364-.02-.562.03-.29.01-.574-.04-.86-.13-.57-.24-1.13-.33-1.682-.09-.58-.21-1.12-.36-1.67-.17-.48-.33-.94-.46-1.38-.14-.47-.33-.95-.55-1.39-1.2-2.81-3.18-5.12-5.9-6.87-2.64-1.7-5.98-2.56-9.91-2.56l-.37.01c-.25.04-.52.08-.8.1-.28.02-.56.03-.86.03l-.14.02c-.6.17-1.2.29-1.79.36-.67.07-1.3.23-1.89.48l-1.81.77c-.6.26-1.2.58-1.75.95-1.43.93-2.66 2.09-3.66 3.45-.98 1.35-1.82 2.89-2.5 4.56-.24.53-.42 1.08-.54 1.65-.11.53-.23 1.06-.37 1.62-.04.24-.08.44-.1.6-.02.15-.05.34-.08.51-.11.38-.13.77-.08 1.15.04.24.02.49-.04.71-.11.32-.16.78-.16 1.4 0 .61.02 1.02.07 1.27.04.19.06.35.06.48v.57l.02.12c.08.33.13.67.15 1.02.03.41.09.81.18 1.2.04.16.03.22.03.22-.04.21 0 .44.11.69.09.48.19.94.3 1.38.12.48.3.97.53 1.41.87 2.11 1.98 3.92 3.31 5.39 1.34 1.48 3.07 2.69 5.15 3.62.55.23 1.13.44 1.73.62.59.18 1.19.36 1.9.56l1.67.21h.33c.18.05.39.06.6.03.11-.01.25 0 .32.02.19.06.46.09.85.09.34 0 .62-.02.83-.07.27 0 .54-.01.82-.04.31-.02.6-.06.88-.1l1.72-.27c.58-.09 1.14-.24 1.65-.42 2.34-.78 4.35-1.93 5.96-3.43 1.61-1.49 2.92-3.37 3.88-5.56.24-.52.43-1.1.57-1.71.13-.57.28-1.14.46-1.7.1-.31.17-.62.19-.92.02-.23.07-.46.17-.79.05-.37.08-.7.11-1 .02-.29.06-.6.1-1.01l-.01-.58c.06-.26.08-.68.08-1.27 0-.62-.05-1.08-.14-1.34zm-6.95 3.79c-.18.65-.31 1.3-.38 1.927-.06.555-.19 1.085-.4 1.578-.6 1.472-1.37 2.76-2.27 3.83-.88 1.05-2.06 1.885-3.51 2.48-.27.118-.57.21-.9.272-.37.067-.73.148-1.1.24l-.1.038c-.07.037-.13.055-.25.053-.24-.032-.45-.026-.78.065-.09.036-.35.072-.74.033-.53-.05-.69-.09-.79-.12-.18-.03-.36-.05-.53-.05-.08 0-.17.01-.33.02-.09 0-.2-.02-.37-.09-.48-.13-.92-.27-1.34-.42-.39-.14-.75-.32-1.09-.53-.23-.14-.45-.26-.63-.35-.17-.08-.36-.19-.54-.3-.83-.58-1.55-1.32-2.11-2.21-.58-.91-1.1-1.9-1.55-2.97-.15-.31-.26-.65-.32-1.03-.06-.43-.14-.87-.23-1.31l-.14-.85c-.08-.31-.12-.68-.12-1.08v-1.34c0-.25-.01-.47-.04-.67-.01-.1-.01-.19.01-.24l.03-.16c0-.47.03-.67.06-.78.09-.5.16-1 .21-1.48.04-.43.13-.86.25-1.26.47-1.39 1.04-2.62 1.69-3.66.63-1.01 1.47-1.89 2.51-2.62.22-.17.45-.34.71-.51.23-.15.48-.26.82-.37.33-.17.67-.3 1.03-.41.37-.11.77-.2 1.19-.29l1.12-.19h1.21c.36 0 .7.04 1.02.12.37.09.74.17 1.1.24.32.06.63.16.91.28 2.59 1.06 4.51 3.01 5.71 5.78.12.29.23.6.31.94.09.37.21.75.34 1.08.3 1.17.45 2.62.45 4.31 0 .37.01.76.04 1.17.02.35-.01.65-.08.91zm205.59-25.78c.4.285.88.43 1.44.43h2.18c.31 0 .61-.058.89-.168.54-.208 1.19-.7 1.23-1.862.02-.72.03-1.486.03-2.298v-1.176c0-.45-.08-.85-.24-1.18-.21-.46-.68-1.02-1.76-1.09-.7-.04-1.43-.06-2.18-.06l-.1-.01-.1.05c-.22-.04-.45 0-.55.05-.66.23-1.12.58-1.36 1.06-.17.34-.25.75-.25 1.23v1.14c0 .68.01 1.37.04 2.07.03.85.29 1.47.78 1.84zm-36.05 0c.4.285.88.43 1.44.43h2.18c.31 0 .61-.058.89-.168.54-.208 1.19-.7 1.23-1.862.02-.72.04-1.486.04-2.298v-1.176c0-.45-.08-.85-.24-1.18-.21-.46-.69-1.02-1.76-1.09-.7-.04-1.43-.06-2.18-.06l-.1-.01-.1.05c-.23-.04-.45 0-.56.05-.66.23-1.12.58-1.36 1.06-.17.34-.25.75-.25 1.23v1.14c0 .68.01 1.37.04 2.07.03.85.29 1.47.78 1.84zm-237.58 36.208c-.24-.42-.69-.744-1.35-.964-.33-.11-.71-.16-1.13-.13-.34.02-.69.03-1.04.03h-20.55c-.48 0-.92-.01-1.31-.03-.31-.02-.57-.11-.81-.28-.19-.14-.29-.38-.33-.75-.04-.5-.06-1.06-.06-1.67v-10.14c0-.37-.01-.74-.03-1.11-.02-.29.01-.55.08-.77.1-.32.25-.53.46-.64.29-.15.63-.26 1.02-.32.41-.06.87-.08 1.34-.06.52.02 1.06.03 1.6.03h16.66c.21 0 .42.01.62.03.28.03.6.01.73-.03h.41l.15-.02c.11-.04.23-.06.36-.08.24-.04.44-.12.6-.26.41-.26.68-.65.78-1.12.11-.31.17-.67.19-1.1.03-.41.02-.81-.03-1.2-.05-.38-.12-.75-.22-1.08-.13-.44-.3-.72-.56-.9-.28-.17-.66-.29-1.15-.37-.44-.07-.93-.12-1.46-.14-.53-.02-1.05-.03-1.56 0-.48.02-.92.03-1.32.03H173.3c-.245 0-.477.01-.696.04-.14.02-.27.01-.39-.02l-.06-.02-.63.01c-.53-.11-.74-.19-.84-.24-.26-.11-.43-.35-.52-.73-.08-.36-.11-.86-.09-1.49.02-.68.037-1.27.037-1.76v-6.85c0-.71.01-1.4.03-2.07.02-.66.28-.89.46-1 .23-.14.7-.3 1.65-.3h.2c.97.02 1.81.03 2.53.03h18c.81 0 1.53-.04 2.14-.11.55-.06 1.27-.36 1.57-1.42.1-.41.15-.96.15-1.7 0-.75-.05-1.29-.15-1.65l-.34-.55c-.12-.18-.28-.34-.46-.46-.37-.26-.83-.4-1.36-.4h-.16c-.48.02-.97.03-1.45.03h-27.73l-.05-.01-.1.05-.2-.03c-.13 0-.27.03-.31.06-.62.17-1.06.48-1.27.84-.25.32-.37.74-.37 1.25V766c0 .53.12.97.35 1.308.3.487.76.78 1.36.87.47.07 1.04.106 1.68.106h28.51c.52 0 .97-.12 1.3-.34.31-.19.57-.498.79-.946l.04-.1c.04-.19.09-.466.14-.826.05-.37.06-.74.04-1.105-.02-.347-.06-.68-.11-1.01-.06-.4-.15-.678-.26-.85zm226.17-43.594c-.71-.03-1.4-.01-1.99.03-.11 0-.25.01-.42.04-.1.02-.18.03-.25.03l-.12.01c-.49.12-.87.41-1.11.82-.27.44-.41 1.09-.41 1.97v9.83c0 .5.01 1.06.04 1.69.02.56-.03 1.02-.15 1.4-.04.16-.07.22-.08.22l-.12.17c-.24.01-.42-.03-.6-.18l-.82-.69c-.55-.42-1.15-.79-1.78-1.12-.62-.32-1.28-.62-1.92-.88-.5-.25-1.02-.41-1.56-.49-.46-.06-.93-.16-1.41-.29l-.13-.02c-.34 0-.52-.03-.62-.05-.4-.1-.96-.15-1.7-.15-.7 0-1.24.04-1.63.14h-.61l-.13.02c-.29.08-.57.14-.84.18l-.96.15c-.99.27-1.93.59-2.79.96-.85.37-1.69.84-2.46 1.39-1.35.93-2.51 2.11-3.45 3.52-.94 1.4-1.72 2.99-2.31 4.72-.14.42-.26.86-.35 1.3-.09.41-.2.84-.34 1.31-.05.25-.08.49-.08.71 0 .15-.02.32-.05.47-.1.37-.14.76-.12 1.14.02.27-.01.54-.08.8l-.02.78c-.09.26-.13.58-.13.96s.05.7.14.96l.01.67c.04.18.05.37.03.56-.03.32.02.64.11.85.04.19.06.38.06.57 0 .25.03.51.09.81.13.43.23.85.29 1.25.08.47.21.93.39 1.31.82 2.56 1.98 4.73 3.45 6.45 1.48 1.73 3.44 3.12 5.82 4.12.84.38 1.83.65 2.95.81.96.14 1.94.21 2.93.21l.41-.01c1.11-.03 2.22-.13 3.3-.31 1.1-.19 2.07-.47 2.89-.84.94-.38 1.88-.92 2.82-1.63.27-.23.54-.46.79-.68.11-.1.27-.15.49-.15l.1.1c.03.03.05.06.06.07.11.26.18.52.2.78.03.4.16.75.38 1.05.2.36.56.61 1.06.73.25.11.51.15.85.12.73-.07 1.56-.03 2.33-.07.68-.03 1.18-.27 1.51-.74.28-.44.41-.99.41-1.64v-43.9c0-.63-.14-1.17-.43-1.65-.36-.48-.98-.74-1.83-.77zm-4.14 31.77l-.03.1c-.05.31-.06.62-.04.93.02.22.01.45-.01.64-.05.21-.08.42-.08.63 0 .08-.02.17-.08.28l-.03.09c-.14.5-.25 1.01-.34 1.52-.08.45-.22.91-.43 1.37-.6 1.41-1.35 2.59-2.22 3.51-.87.9-2.02 1.67-3.43 2.27-.27.12-.57.21-.9.27-.35.06-.69.14-1.04.22-.28 0-.5.02-.67.06h-1.11c-.16 0-.31-.02-.38-.03-.21-.09-.43-.13-.65-.13-.11 0-.22.01-.33.03-.15.02-.26.02-.48-.06-.48-.13-.92-.26-1.31-.4-.38-.13-.75-.3-1.12-.5-1.23-.68-2.26-1.56-3.07-2.62-.81-1.07-1.46-2.37-1.93-3.87-.08-.3-.16-.6-.22-.91-.06-.3-.14-.6-.22-.9 0-.34-.03-.58-.08-.71-.08-.36-.12-.77-.12-1.2v-1.44c0-.24-.01-.5-.04-.78-.01-.19.01-.36.07-.51l.03-.19c0-.15.01-.3.03-.44.03-.18.04-.37.03-.48.09-.5.17-1.01.24-1.54.07-.47.18-.95.35-1.41.52-1.51 1.21-2.85 2.05-3.99.81-1.11 1.91-1.97 3.23-2.55.33-.13.69-.23 1.05-.32.36-.09.71-.17 1.05-.26.22 0 .42-.02.6-.04.19-.02.4-.06.55-.1h1.24c.39 0 .74.04 1.1.12.52.09 1.02.19 1.48.3.43.1.85.26 1.29.47 1.22.55 2.24 1.31 3.04 2.28.81.98 1.49 2.14 2.01 3.43.12.29.21.57.27.85.07.31.15.66.25 1.07.12.31.2.67.24 1.05.04.42.11.84.2 1.24v.95l.04.19c.05.11.1.33.1.72 0 .39-.06.61-.1.72zm-88.32-31.54c-.39-.22-.86-.33-1.39-.33h-34.52l-.04-.01-.1.05-.21-.03c-.11 0-.23.02-.34.07-.19.05-.37.11-.53.18-.23.1-.42.25-.56.45-.18.2-.32.5-.43.93-.1.38-.16.8-.18 1.23-.02.43-.01.86.04 1.29.06.49.18.86.35 1.09.13.19.28.35.49.48l.39.26.1.05c.43.16 1.01.22 1.77.2.69-.02 1.3-.04 1.83-.04h7.39c.87 0 1.71.02 2.49.07.57.03.9.27 1.06.8.12.34.16.81.15 1.4-.02.65-.03 1.23-.03 1.73v34.72c0 .59.01 1.13.03 1.63.03.59.21 1.11.53 1.54.32.45.9.68 1.72.68h1.85c.37 0 .72-.01 1.04-.04.36-.03.68-.09.99-.22.6-.3.96-.83 1.05-1.53.07-.56.11-1.19.11-1.87v-34.85c0-.5-.02-1.07-.07-1.72-.04-.56 0-1.01.11-1.35.1-.3.24-.52.43-.66.21-.15.46-.25.76-.31.34-.06.74-.08 1.17-.06.48.02.97.03 1.47.03h9.47c.73 0 1.3-.14 1.79-.44.31-.24.51-.53.61-.85.07-.23.15-.53.24-.9l.01-.93c0-.61-.03-1.12-.11-1.53-.09-.52-.39-.94-.88-1.25zm357.86 43.4c-.26-.39-.65-.63-1.16-.72-.4-.07-.85-.11-1.33-.11h-.8c-.11-.03-.23-.05-.35-.05-.07 0-.14 0-.3.02-.04 0-.08-.01-.19-.04-.46-.09-.86-.19-1.19-.32-.26-.1-.46-.27-.64-.56-.34-.5-.5-1.24-.48-2.23.02-1.1.04-2.15.04-3.14v-13.29c0-.46-.01-.92-.03-1.4-.02-.44-.01-.87.03-1.27.04-.37.12-.7.23-.96.08-.2.21-.33.39-.4.64-.24 1.63-.18 2.59-.14.53.02 1.04.02 1.52 0 .58-.03 1.06-.19 1.41-.49.37-.31.59-.75.65-1.31.05-.45.07-.94.07-1.43v-.67c0-.3-.06-.58-.19-.83-.17-.35-.49-.68-1.05-1.04-.33-.14-.81-.21-1.45-.21h-.31c-.71.02-1.31.03-1.79.03h-.64c-.17 0-.35-.02-.5-.05-.46-.13-.73-.4-.87-.89-.07-.21-.09-.47-.07-.79.02-.39.03-.77.03-1.14v-3.89c0-.5-.01-.99-.03-1.47-.03-.58-.19-1.05-.47-1.38-.36-.49-.96-.75-1.79-.77-.68-.03-1.35-.04-2.03-.04-.12 0-.26.02-.4.04-.08.01-.17.02-.27.02l-.2.05c-.59.27-1.01.64-1.27 1.17-.1.32-.16.7-.16 1.13v6.42c0 .35-.03.63-.07.76-.18.32-.42.57-.66.71-.47.15-1.06.19-1.77.11-.86-.1-1.55-.05-2.19.18-.58.29-.95.74-1.07 1.31-.1.46-.14 1.01-.14 1.68 0 .24.01.48.04.72.03.28.11.55.19.72.19.56.57.93 1.11 1.09.43.13.95.19 1.59.19h.97c.25.1.53.11.76.05.1-.03.24-.01.26-.01.57.19.66.37.67.39.06.17.18.5.33 1.15v17.53c0 1.58.04 3.07.13 4.43.09 1.45.48 2.68 1.15 3.63.5.75 1.13 1.29 1.87 1.59.67.27 1.47.53 2.39.76l.13.01c.21 0 .4.01.58.03.19.02.39.05.7.11l.71-.01c.18.04.37.06.58.06.1 0 .2-.01.3-.02.61-.05 1.2-.03 1.95 0 .5.03.95-.01 1.37-.11.62-.17 1.06-.47 1.27-.85.19-.25.31-.58.37-1 .05-.37.06-.75.04-1.14-.02-.38-.07-.75-.14-1.11-.08-.41-.18-.69-.31-.88zm-248.23-28.29c0-.55-.15-1-.41-1.31-.31-.5-.87-.77-1.64-.8-.61-.02-1.21-.03-1.8-.03l-.11-.01-.1.05c-.14-.03-.28-.04-.39-.04l-.16.03c-.25.08-.47.14-.68.18-.36.07-.66.29-.82.57-.3.36-.45.84-.45 1.43v31.09c0 .52.12.97.35 1.3.31.48.75.77 1.32.87.45.07.98.1 1.59.1h1.07l1-.25c.39-.1.71-.35.91-.72.28-.36.41-.83.38-1.4-.02-.46-.03-.91-.03-1.35v-29.7zm318.57-1.81c-.29-.17-.64-.27-1.06-.3-.97-.06-2.04-.04-2.96.03-.7.05-1.26.34-1.65.85-.27.31-.47.7-.6 1.15-.11.37-.23.73-.36 1.09-.14.4-.28.82-.41 1.25-.13.4-.28.79-.46 1.2-.1.25-.18.47-.22.67-.04.16-.1.34-.18.53-.23.54-.43 1.12-.59 1.7-.15.53-.34 1.06-.56 1.59-.1.25-.17.47-.22.67-.04.16-.1.34-.18.55-.14.36-.27.76-.41 1.2-.12.4-.27.79-.48 1.27-.08.34-.15.62-.19.84-.44.98-.83 2.02-1.14 3.07-.3 1.03-.66 2.07-1.06 3.08-.32.81-.59 1.67-.82 2.54-.21.82-.5 1.6-.85 2.35-.08.21-.22.5-.41.86-.04.08-.1.15-.13.15l-.13-.04c-.11-.03-.25-.1-.34-.34-.13-.34-.27-.67-.39-.96-.22-.62-.44-1.26-.67-1.91-.22-.66-.48-1.32-.79-2.03-.03-.06-.05-.1-.05-.16 0-.23-.06-.48-.17-.7-.53-1.28-1.02-2.63-1.46-3.99-.45-1.4-.95-2.77-1.49-4.07-.21-.51-.39-1.03-.51-1.54-.14-.56-.33-1.11-.56-1.61-.22-.54-.42-1.08-.59-1.61-.18-.58-.39-1.14-.61-1.68-.22-.57-.42-1.14-.59-1.71-.18-.59-.38-1.18-.62-1.8l-.5-1.14c-.2-.45-.52-.82-.97-1.1-.41-.25-.98-.38-1.73-.38l-.22.01c-.76.02-1.42.03-2 .03l-.1-.01-.1.05c-.2-.04-.38-.02-.55.05-.51.12-.88.35-1.05.65-.23.31-.43.85-.13 1.64.18.46.31.83.41 1.12.4.98.78 1.95 1.14 2.9.36.96.77 1.97 1.22 3.01.81 1.97 1.6 3.93 2.38 5.9.79 1.97 1.58 3.94 2.38 5.89.22.63.45 1.24.67 1.82.23.58.48 1.2.74 1.81.36.89.72 1.81 1.07 2.74.36.95.75 1.9 1.15 2.84.27.62.53 1.25.77 1.87.24.61.47 1.28.69 1.97.15.53.14 1.02-.03 1.51-.19.57-.38 1.05-.55 1.45-.27.63-.53 1.27-.78 1.9-.24.6-.51 1.18-.81 1.72-.29.52-.64.99-1.04 1.41-.36.38-.85.68-1.46.89-.8.32-2.04.25-2.83.11-.98-.29-1.75-.05-2.15.58-.19.25-.3.58-.33.97-.03.3-.04.61-.04.94 0 .45.01.88.03 1.27.03.49.19.91.45 1.22.25.37.6.62 1.06.74.34.09.69.18 1.05.27l.12.01c.23 0 .41.02.55.05.22.06.44.08.66.08s.44-.02.62-.07c.21-.03.41-.03.6 0 .34.06.71.02.9-.07.63-.13 1.21-.28 1.72-.45.52-.16 1.05-.39 1.6-.69 1.51-.94 2.7-2.28 3.54-3.99.81-1.64 1.58-3.3 2.31-5 .1-.28.18-.54.25-.8.06-.23.14-.45.22-.65 1.3-3.09 2.52-6.24 3.64-9.36 1.12-3.12 2.33-6.25 3.62-9.32.36-.9.71-1.81 1.05-2.73.33-.91.68-1.82 1.03-2.7.14-.33.26-.65.35-.96.09-.28.2-.6.32-.94.5-1.25.99-2.52 1.48-3.79.49-1.28.99-2.54 1.46-3.75.06-.12.11-.24.14-.36.01-.06.03-.11.07-.2.14-.33.3-.79.49-1.39.33-1.07-.19-1.61-.55-1.86zm-156.22-12.95c-.41-.41-1.01-.62-1.8-.62h-1.84l-.1-.01-.1.05c-.22-.05-.44-.01-.56.05-.6.22-1.01.5-1.24.85-.29.41-.42.95-.39 1.62.02.55.04 1.07.04 1.56v40.69c0 .59.01 1.15.03 1.69.03.62.18 1.16.49 1.64.32.38.78.58 1.37.61.46.02.94.03 1.44.03h1l.06-.02c.35-.09.64-.15.88-.2.39-.07.71-.29.91-.63.28-.44.41-1.02.41-1.74v-42.4c0-.55-.01-1.08-.03-1.6-.02-.61-.18-1.12-.51-1.57zm123.28 44.67c0-.23-.07-.46-.18-.63-.25-.5-.65-.81-1.16-.91-.32-.06-.66-.17-1.06-.35-.26-.1-.47-.26-.62-.46-.19-.29-.3-.69-.33-1.18-.05-.56-.07-1.16-.07-1.78v-14.84c0-1.3-.04-2.56-.11-3.76-.07-1.24-.32-2.35-.75-3.29-.99-2.28-2.75-3.84-5.21-4.64-2.23-.73-4.87-1.11-7.82-1.11h-.73l-.09.09c-.05.01-.2.02-.41.01-.46-.03-.8-.01-.99.04-.48.09-.94.15-1.4.19-.49.04-.97.11-1.46.21-1.97.55-3.64 1.28-4.98 2.18-1.36.91-2.5 2.21-3.4 3.87-.23.5-.43 1.03-.59 1.57-.16.53-.31 1.09-.44 1.67-.11.44-.11.87.01 1.26.12.42.32.73.58.93.25.19.61.31 1.13.4.9.14 1.87.14 2.78 0 .52-.08.88-.21 1.12-.39.41-.29.69-.7.83-1.21.11-.39.23-.76.34-1.07.21-.47.46-.9.73-1.3.26-.38.55-.69.84-.91.68-.47 1.39-.83 2.09-1.08.51-.17 1.13-.3 1.85-.38 1.47-.18 3.12-.18 4.55 0 .69.08 1.29.23 1.8.44.85.32 1.52.77 1.97 1.33.47.56.83 1.36 1.08 2.36.15.58.16 1.09.01 1.56-.16.5-.36.91-.6 1.23-.51.71-1.18 1.14-2.05 1.31-.99.2-2.05.44-3.18.71-.33.08-.64.14-.92.16-.35.03-.7.09-1.02.18-.31.08-.6.12-.85.12-.33 0-.68.05-1 .14-.67.13-1.34.24-1.98.33-.68.09-1.36.23-2.02.42-1.68.5-3.24 1.07-4.63 1.7-1.47.67-2.65 1.7-3.5 3.07-.29.44-.54.93-.73 1.45l-.56 1.57c-.04.28-.08.55-.1.81-.02.23-.06.45-.11.75V759c0 1.45.22 2.71.64 3.75.57 1.41 1.3 2.523 2.18 3.31.87.77 2.01 1.47 3.4 2.07.35.15.72.26 1.11.33.35.07.7.14 1.02.22.21.07.37.092.64.05.02 0 .07 0 .15.02.23.11.49.16.77.16.19 0 .38.02.67.07l.5-.01c.51.1 1.14.09 1.51.01h.5c.18 0 .4-.03.66-.08.49-.09.98-.16 1.46-.2.55-.05 1.07-.15 1.54-.29.77-.23 1.52-.49 2.21-.79.69-.306 1.35-.64 1.96-1.02.41-.28.85-.607 1.28-.977.37-.31.77-.52 1.18-.67.1.08.19.16.27.236.22.22.41.52.57.88.19.46.41.86.66 1.21.43.58 1.15 1.05 2.22 1.42.63.22 1.27.33 1.91.33.43 0 .86-.05 1.34-.16.57-.19 1.02-.09 1.55-.3.54-.27.97-.69 1.29-1.24.33-.57.42-1.29.26-2.13-.04-.18-.06-.32-.06-.43zm-10.09-9.11c-.02.76-.15 1.43-.4 2.01-.46 1.21-1.12 2.18-1.96 2.88-.87.72-1.94 1.35-3.19 1.87-.28.12-.56.19-.84.23-.35.05-.72.12-1.13.22-.2.07-.39.09-.6.07-.33-.03-.67.02-.99.12-.25.08-.59.1-1.01.08-.43-.02-.78-.07-1.1-.16-.44-.08-.97-.06-1.28-.11-.63-.21-1.23-.48-1.78-.8-.52-.29-.94-.67-1.25-1.1-.2-.28-.38-.6-.52-.94-.13-.31-.19-.67-.19-1.07-.04-.92.05-1.71.25-2.34.2-.62.51-1.16.9-1.6.41-.45.91-.83 1.48-1.14.6-.32 1.25-.59 1.9-.8.36-.09.68-.17.97-.24.3-.07.63-.15.99-.24.64-.17 1.33-.26 2.07-.28.79-.02 1.55-.13 2.24-.3.18-.01.35-.02.51-.04.13-.02.26-.03.47-.04l1.34-.27c.46-.09.87-.18 1.23-.27l.11-.04c.11-.06.24-.08.38-.08.26 0 .46-.05.63-.13.4.01.51.04.5.04.2.14.3.32.33.58.05.39.07.82.07 1.28 0 .89-.01 1.75-.03 2.57zm-48.52-2.74c0-.35-.06-.68-.14-.87-.09-.45-.18-.88-.27-1.29-.09-.43-.24-.87-.43-1.3-.51-1.17-1.19-2.2-2.01-3.07-.8-.85-1.73-1.61-2.74-2.26-.79-.51-1.63-.95-2.5-1.32-.86-.36-1.75-.71-2.66-1.02-.41-.14-.83-.27-1.24-.38-.41-.12-.82-.22-1.23-.31-.19-.05-.36-.08-.5-.11-.12-.02-.27-.06-.39-.08-.65-.23-1.35-.41-2.07-.53-.67-.11-1.32-.25-1.9-.42-.43-.15-.87-.25-1.31-.3-.37-.04-.76-.1-1.13-.19-1.3-.36-2.56-.7-3.77-1.01-1.16-.3-2.21-.76-3.16-1.36-.8-.46-1.42-.95-1.85-1.44-.42-.48-.78-1.21-1.07-2.16-.08-.27-.13-.62-.15-1.03-.02-.4.01-.76.1-1.09.09-.45.17-.87.24-1.25.06-.33.17-.66.34-1.01.33-.82.82-1.51 1.47-2.06.67-.57 1.44-1.02 2.3-1.37 1.5-.68 3.39-1.03 5.63-1.03h1.08c.32 0 .64.04.95.12l.58.01c.28.09.56.14.85.17.23.02.46.06.73.15 1.37.34 2.56.85 3.55 1.54 1.29.83 2.31 2.11 3.05 3.83.2.4.36.88.46 1.41.12.64.34 1.2.71 1.74.11.11.21.2.33.28.12.09.23.16.35.22.38.19.72.15 1.17.24.21.05.44.08.66.08h.6c.56 0 1.09-.02 1.59-.07.64-.06 1.13-.31 1.46-.78.18-.3.28-.69.31-1.21.02-.48-.02-.92-.12-1.33-.22-.86-.45-1.68-.67-2.46-.24-.83-.58-1.59-.99-2.24-.13-.21-.24-.43-.35-.66-.13-.28-.29-.55-.5-.81l-1.05-1.31c-.12-.18-.26-.33-.43-.47-.12-.1-.22-.19-.3-.27-.11-.11-.21-.2-.33-.29-.07-.05-.14-.11-.21-.19-.25-.26-.53-.47-.82-.63-.23-.12-.48-.27-.74-.45-1.56-1.01-3.37-1.77-5.39-2.28-2-.5-4.33-.71-6.92-.62l-.19.01-.09.09c-.06.02-.1 0-.16-.01-.37-.07-.66-.05-.8 0-.69.17-1.63.09-2.36.27-.35.09-.68.17-.99.23-.32.07-.66.15-1.04.24-1.32.36-2.5.8-3.51 1.31l-.14.06-.06.06c-.22.04-.4.13-.56.26-1.22.77-2.34 1.62-3.33 2.54-1.03.96-1.88 2.15-2.54 3.55-.19.43-.35.89-.46 1.36-.11.44-.24.91-.37 1.39-.14.48-.26 1.14-.35 2s-.07 1.57.06 2.16c.01.14.02.28.04.42.02.11.03.24.03.39l.02.13c.13.48.24.94.33 1.4.1.52.27 1.01.5 1.41.52 1.23 1.24 2.25 2.15 3.03.86.75 1.84 1.46 2.87 2.09.43.29.89.534 1.37.72l1.3.52c.16.09.3.12.43.15.65.28 1.36.51 2.1.67.72.16 1.43.35 2.12.57 1.25.36 2.58.68 3.94.95 1.34.27 2.65.55 3.92.84 1.26.28 2.47.63 3.6 1.02 1.12.39 2.14.91 3.03 1.55.59.42 1.11.88 1.53 1.37.41.47.74 1.06 1.01 1.81.05.11.08.21.08.28 0 .22.06.47.158.71.07.27.11.63.11 1.07 0 .45-.04.84-.12 1.16l-.27 1.07c-.09.34-.19.68-.31.99-.46 1.03-1.11 1.852-1.95 2.45-.89.63-1.91 1.18-3.01 1.65-.34.12-.69.22-1.05.27-.42.07-.81.15-1.18.243l-.1.04c-.09.04-.13.05-.13.05-.19-.037-.42-.01-.56.03-.42.09-.937.05-1.24.13h-.47l-.19.04c-.16.063-.38.1-.65.1-.37 0-.555-.03-.58-.03-.31-.127-.63-.16-.98-.1-.17.03-.32.03-.43.01l-.12-.02c-.106 0-.21-.01-.325-.03-.165-.03-.3-.04-.353-.04l-1.07-.14c-.34-.04-.68-.1-.99-.18-1.01-.31-1.97-.64-2.85-.995-.84-.337-1.64-.79-2.37-1.35-1.44-1.054-2.53-2.517-3.26-4.36-.12-.28-.21-.564-.27-.845-.07-.325-.15-.65-.25-1-.08-.232-.13-.45-.15-.66-.03-.323-.13-.63-.28-.884-.14-.278-.4-.52-.83-.76-.21-.11-.42-.16-.61-.16l-.23.02c-.08 0-.174-.02-.23-.02-.184-.068-.4-.1-.66-.1h-.57c-.5 0-1.02.02-1.55.07-.665.06-1.16.31-1.42.68-.32.32-.48.81-.48 1.46 0 .55.05 1.05.17 1.56.07.18.114.37.134.59.02.31.09.62.19.91.23.73.47 1.42.71 2.05.255.65.57 1.29.94 1.89 1.1 1.84 2.44 3.36 3.99 4.51 1.54 1.15 3.45 2.1 5.65 2.814.46.182.93.33 1.39.43.43.09.898.18 1.38.27.24.05.45.08.65.11.16.02.32.05.49.09.81.18 1.62.08 2.73.28h.644c.26.05.62.08 1.07.08.45 0 .81-.02.98-.06.28 0 .567-.01.85-.03.26-.028.51-.04.86-.05.42-.09.91-.04 1.44-.14.52-.13 1.04-.23 1.55-.29.56-.07 1.12-.2 1.61-.38.496-.13.96-.27 1.395-.41.44-.14.89-.3 1.37-.49 1.36-.63 2.65-1.37 3.83-2.19 1.21-.84 2.23-1.88 3-3.06.43-.56.79-1.185 1.07-1.85.27-.62.52-1.29.75-1.97.15-.4.24-.82.27-1.25.02-.35.07-.69.15-1.017l.02-.66c0-.14.02-.28.05-.41l.02-1.46-.03-.16c-.07-.22-.11-.45-.11-.69zm-75.68 11.85c0-.23-.07-.46-.18-.63-.25-.5-.65-.81-1.17-.91-.32-.06-.67-.17-1.06-.35-.27-.1-.47-.26-.62-.46-.18-.29-.29-.69-.33-1.18-.05-.56-.07-1.16-.07-1.78v-14.84c0-1.3-.04-2.56-.11-3.76-.07-1.24-.32-2.35-.75-3.29-.99-2.28-2.74-3.84-5.2-4.64-2.23-.73-4.87-1.11-7.83-1.11h-.73l-.09.09c-.05.01-.2.02-.41.01-.46-.03-.8-.01-.99.04-.47.09-.94.15-1.4.19-.49.04-.97.11-1.46.21-1.97.55-3.64 1.28-4.98 2.18-1.36.91-2.5 2.21-3.4 3.87-.23.5-.43 1.03-.59 1.57-.16.53-.31 1.09-.44 1.67-.12.44-.11.87 0 1.26.12.42.31.73.58.93.25.18.61.31 1.13.39.9.14 1.87.14 2.78 0 .52-.08.88-.21 1.12-.39.41-.29.69-.7.83-1.21.11-.39.23-.76.35-1.07.21-.47.46-.9.73-1.3.26-.38.55-.69.85-.91.68-.47 1.39-.83 2.09-1.08.51-.17 1.13-.3 1.85-.38 1.47-.18 3.12-.18 4.55 0 .69.08 1.29.23 1.79.44.86.32 1.52.77 1.98 1.32.47.57.83 1.36 1.08 2.36.16.58.16 1.09.01 1.56-.16.51-.36.92-.6 1.24-.51.71-1.18 1.14-2.05 1.31-.99.2-2.05.44-3.17.71-.33.08-.64.13-.92.15-.35.02-.7.09-1.02.18-.31.08-.6.12-.85.12-.33 0-.68.05-1 .14-.68.13-1.34.25-1.98.33-.68.09-1.36.23-2.02.42-1.68.5-3.24 1.07-4.63 1.7-1.47.66-2.65 1.7-3.5 3.06-.29.44-.54.93-.73 1.45l-.56 1.56c-.05.28-.08.55-.1.81-.02.23-.05.45-.1.75V759c0 1.45.22 2.71.64 3.746.57 1.41 1.3 2.52 2.18 3.305.86.77 2 1.47 3.4 2.07.35.15.72.26 1.11.33.35.07.7.15 1.02.23.21.07.37.09.64.05.02 0 .07 0 .15.02.24.11.49.16.77.16.2 0 .39.02.68.07l.51-.01c.51.1 1.14.09 1.51.01h.5c.19 0 .41-.03.66-.08.49-.09.98-.15 1.47-.19.55-.05 1.07-.14 1.54-.29.77-.22 1.52-.49 2.21-.79.69-.3 1.35-.64 1.96-1.01.42-.27.85-.6 1.29-.97.37-.31.77-.52 1.18-.67.1.08.19.16.27.24.22.22.41.52.56.88.19.46.41.86.66 1.21.43.58 1.15 1.05 2.22 1.42.62.22 1.26.33 1.9.33.43 0 .86-.05 1.34-.16.57-.19 1.02-.08 1.54-.3.54-.27.97-.68 1.29-1.24.33-.57.42-1.28.26-2.12-.04-.18-.06-.32-.06-.44zm-10.1-9.11c-.02.76-.15 1.43-.4 2.01-.46 1.21-1.12 2.18-1.96 2.88-.88.72-1.95 1.35-3.2 1.87-.28.12-.56.19-.85.23-.35.05-.72.12-1.13.22-.2.07-.39.09-.6.08-.33-.03-.67.02-.98.12-.25.08-.59.1-1.01.08-.42-.02-.78-.07-1.1-.16-.44-.08-.97-.06-1.28-.11-.62-.21-1.23-.48-1.78-.8-.52-.29-.94-.67-1.25-1.1-.2-.28-.37-.6-.51-.94-.13-.31-.19-.67-.19-1.07-.04-.92.04-1.71.25-2.34.2-.62.5-1.16.9-1.6.41-.45.9-.83 1.48-1.14.6-.32 1.24-.59 1.9-.8.35-.09.68-.17.96-.24.3-.07.62-.15.99-.24.64-.17 1.33-.26 2.07-.29.79-.02 1.54-.13 2.23-.3.18-.01.35-.02.51-.04.13-.02.25-.03.47-.04l1.35-.27c.46-.09.87-.18 1.23-.27l.11-.04c.11-.06.23-.08.38-.08.25 0 .46-.05.62-.13.4.01.52.04.5.04.2.14.3.32.33.58.04.39.06.82.06 1.28.01.89-.01 1.75-.03 2.57zm-118.1 7.49c-.26-.39-.65-.63-1.16-.72-.4-.08-.85-.11-1.33-.11h-.8c-.12-.03-.24-.05-.36-.05-.07 0-.15 0-.31.02-.05 0-.09-.01-.19-.04-.47-.09-.87-.19-1.19-.32-.26-.1-.46-.27-.64-.56-.34-.49-.51-1.24-.48-2.22.02-1.1.03-2.15.03-3.14v-13.29c0-.46-.01-.93-.04-1.41-.02-.44-.01-.87.03-1.27.04-.37.12-.7.23-.96.08-.2.21-.33.39-.4.63-.24 1.63-.18 2.59-.14.53.02 1.04.02 1.52 0 .58-.03 1.05-.19 1.4-.48.37-.31.59-.75.65-1.31.05-.45.07-.93.07-1.43v-.67c0-.3-.06-.58-.19-.82-.17-.35-.49-.68-1.05-1.05-.33-.15-.81-.22-1.45-.22h-.31c-.71.02-1.31.03-1.8.03h-.64c-.17 0-.35-.02-.5-.05-.46-.13-.73-.4-.87-.89-.07-.21-.09-.47-.07-.79.03-.39.04-.77.04-1.14v-3.9c0-.5-.01-.99-.03-1.47-.03-.58-.19-1.05-.47-1.38-.36-.49-.97-.74-1.79-.77-.68-.02-1.36-.04-2.03-.04-.12 0-.26.01-.4.04-.08.02-.18.03-.28.03l-.2.04c-.6.27-1.02.64-1.27 1.17-.1.31-.16.69-.16 1.13v6.41c0 .34-.04.63-.07.76-.18.32-.42.57-.66.71-.47.15-1.06.19-1.76.11-.87-.1-1.55-.05-2.19.18-.58.29-.95.75-1.07 1.32-.09.46-.14 1.01-.14 1.68 0 .24.01.48.03.72.03.29.11.55.2.72.19.56.57.94 1.1 1.09.43.13.94.19 1.59.19h.97c.25.1.53.11.76.05.1-.03.24-.02.26-.02.58.19.66.37.67.39.07.16.18.5.33 1.14v17.54c0 1.58.04 3.07.13 4.43.1 1.45.49 2.68 1.16 3.63.51.75 1.13 1.29 1.87 1.59.67.28 1.47.53 2.39.76l.12.01c.21 0 .4.01.58.03.19.02.39.05.7.1l.71-.01c.18.03.37.05.57.05.1 0 .2 0 .3-.01.61-.05 1.2-.04 1.95 0 .5.03.95-.01 1.37-.12.62-.17 1.06-.47 1.28-.85.19-.25.31-.58.36-1.01.05-.37.06-.75.04-1.13-.02-.39-.07-.76-.14-1.11-.08-.41-.18-.7-.31-.89zm12.91-28.3c0-.55-.15-1-.41-1.31-.31-.51-.87-.78-1.64-.81-.61-.02-1.21-.03-1.79-.03l-.1-.01-.1.05c-.14-.03-.28-.04-.39-.04l-.16.02c-.24.08-.47.14-.67.18-.36.07-.67.29-.83.57-.3.36-.45.84-.45 1.43v31.09c0 .52.12.97.34 1.3.3.48.75.77 1.32.87.45.07.99.1 1.59.1h1.07l1-.25c.4-.1.71-.34.91-.71.28-.36.4-.83.38-1.41-.02-.47-.03-.92-.03-1.36v-29.71zm40.55 14.03c-.03-.18-.04-.37-.02-.57.02-.3.01-.58-.05-.86-.13-.57-.24-1.13-.33-1.68-.09-.58-.21-1.13-.35-1.67-.17-.48-.33-.94-.46-1.39-.14-.48-.33-.95-.56-1.4-1.2-2.81-3.18-5.12-5.89-6.88-2.64-1.7-5.98-2.57-9.91-2.57l-.37.01c-.26.04-.53.07-.8.09-.28.02-.57.03-.87.03l-.14.02c-.6.17-1.2.29-1.8.35-.67.07-1.31.23-1.89.47l-1.81.77c-.61.26-1.2.57-1.76.95-1.44.92-2.67 2.08-3.66 3.44-.98 1.35-1.83 2.88-2.5 4.55-.24.52-.42 1.08-.54 1.65-.11.53-.23 1.06-.37 1.61-.05.23-.08.43-.11.59-.02.15-.05.33-.09.5-.11.39-.13.77-.08 1.15.04.24.02.49-.04.71-.11.32-.16.78-.16 1.4 0 .6.02 1.02.08 1.27.04.19.06.35.06.48v.57l.02.12c.08.33.13.67.15 1.02.03.41.09.81.19 1.2.04.16.03.21.03.21-.05.21-.01.44.11.69.09.48.19.94.3 1.38.12.48.3.97.53 1.41.87 2.1 1.98 3.91 3.31 5.38 1.34 1.47 3.07 2.69 5.15 3.61.55.23 1.13.44 1.72.62.59.18 1.19.36 1.9.56l1.67.21h.33c.19.05.4.06.61.03.12-.02.25 0 .33.01.19.06.47.09.86.09.34 0 .62-.02.83-.06.27 0 .54-.02.82-.04.31-.03.6-.06.88-.11.58-.09 1.16-.18 1.72-.27.58-.1 1.15-.24 1.66-.43 2.34-.78 4.34-1.94 5.96-3.44 1.61-1.49 2.92-3.37 3.88-5.56.24-.52.43-1.1.57-1.71.13-.57.29-1.14.46-1.7.1-.3.17-.61.19-.92.02-.23.07-.46.15-.69l.03-.1c.04-.37.08-.7.1-1 .02-.28.06-.6.1-1.01l-.01-.57c.05-.27.08-.68.08-1.27 0-.62-.05-1.08-.14-1.35zm-6.94 3.79c-.18.64-.31 1.29-.38 1.92-.07.55-.2 1.08-.41 1.57-.61 1.47-1.37 2.76-2.27 3.83-.89 1.05-2.07 1.89-3.51 2.48-.27.12-.58.21-.9.27-.37.07-.74.15-1.11.24l-.1.04c-.08.04-.14.04-.25.05-.24-.03-.45-.03-.79.06-.09.03-.35.07-.74.03-.54-.06-.69-.1-.8-.13-.18-.04-.36-.06-.53-.06-.08 0-.17.01-.32.02-.1 0-.21-.02-.38-.09-.48-.13-.92-.27-1.33-.42-.39-.15-.76-.32-1.09-.53-.23-.14-.45-.26-.64-.36-.17-.09-.36-.19-.54-.3-.83-.59-1.55-1.33-2.11-2.21-.59-.92-1.1-1.91-1.55-2.98-.15-.31-.26-.66-.32-1.03-.07-.43-.15-.88-.23-1.31l-.14-.85c-.07-.31-.11-.68-.11-1.09v-1.34c0-.25-.01-.47-.04-.67-.01-.1-.01-.19.02-.25l.03-.16c0-.45.03-.66.06-.79.09-.51.16-1 .21-1.49.04-.44.12-.86.24-1.26.48-1.39 1.05-2.62 1.7-3.66.63-1.01 1.47-1.89 2.51-2.63.21-.17.45-.34.7-.51.23-.15.47-.27.82-.37.33-.17.67-.3 1.03-.41.37-.11.77-.21 1.19-.29l1.12-.2h1.21c.36 0 .71.04 1.02.12.37.09.74.17 1.11.24.33.06.63.15.91.27 2.59 1.06 4.51 3.01 5.71 5.78.13.28.23.6.31.93.1.37.22.75.34 1.08.3 1.16.46 2.61.46 4.31 0 .36.01.75.04 1.17.02.34-.01.65-.08.91zm42.06-12.28c-.13-.55-.28-1.08-.44-1.6-.17-.56-.4-1.08-.69-1.56-1.07-1.78-2.52-3.13-4.3-4.02-1.6-.8-3.69-1.21-6.21-1.21-.26 0-.53 0-.79.01h-.67c-.25 0-.5.02-.78.08-.38.08-.77.15-1.19.19-.47.05-.91.15-1.27.29-.88.28-1.67.62-2.35 1.02-.65.38-1.3.81-1.96 1.28-.39.29-.77.68-1.14 1.17-.2.27-.44.4-.74.41-.11-.1-.19-.21-.23-.33-.16-.52-.22-.98-.18-1.39.04-.46-.08-1.12-.89-1.64-.2-.13-.49-.22-.91-.28-.72-.09-1.49-.09-2.21 0-.35.05-.63.1-.84.15-.42.13-.75.38-.95.75-.23.31-.34.72-.34 1.22v31.29c0 .81.26 1.38.72 1.66.29.23.65.38 1.05.44.89.12 1.88.07 2.81.04.73-.03 1.26-.31 1.56-.78.29-.4.43-.92.43-1.54V750.2c0-.245-.01-.47-.04-.67-.01-.1-.01-.18.02-.244l.03-1.47c.1-.25.12-.51.06-.78-.02-.11-.01-.22.06-.41.09-.38.16-.77.21-1.17.04-.338.12-.67.25-1.02.68-2.13 1.77-3.73 3.17-4.74.2-.11.38-.2.52-.3.12-.08.26-.16.46-.26.4-.247.85-.44 1.33-.59.5-.15 1.04-.297 1.62-.43.08-.02.15-.03.27-.028l.16.01c.18 0 .36-.04.56-.13.12-.024.35-.054.83-.08.41-.016.76 0 .86.01.3.104.62.17.96.195.25.02.49.065.72.143.88.29 1.66.7 2.33 1.22.64.5 1.13 1.17 1.46 1.98.33.796.52 1.766.56 2.88.05 1.18.07 2.37.07 3.57v18.2c0 .6.15 1.104.41 1.474.22.34.66.76 1.55.8.54.02 1.11.03 1.7.03.29 0 .56-.01.82-.03.3-.024.58-.093.84-.2.54-.202 1.19-.704 1.23-1.924.02-.77.03-1.53.03-2.3V746.3c0-1.01-.02-2.04-.07-3.05-.04-1.015-.18-1.98-.41-2.854z"/>
</svg>
