<?xml version="1.0" encoding="utf-8"?>
<!-- Generator: Adobe Illustrator 15.0.0, SVG Export Plug-In . SVG Version: 6.00 Build 0)  -->
<!DOCTYPE svg PUBLIC "-//W3C//DTD SVG 1.1//EN" "http://www.w3.org/Graphics/SVG/1.1/DTD/svg11.dtd">
<svg version="1.1" id="Layer_1" xmlns="http://www.w3.org/2000/svg" xmlns:xlink="http://www.w3.org/1999/xlink" x="0px" y="0px"
	 width="595.28px" height="595.28px" viewBox="0 0 595.28 595.28" enable-background="new 0 0 595.28 595.28" xml:space="preserve">
<path d="M166.68,0H0v166.68h166.68V0z M142.87,142.87H23.81V23.81h119.06V142.87z M23.81,261.92v-23.81h23.81V214.3H23.81v-23.81H0
	v95.24h47.62v-23.81H23.81z M23.81,380.98H0v23.81h47.62v-47.62H23.81V380.98z M166.68,261.92v-23.81H47.62v23.81H166.68z
	 M119.05,47.62H47.62v71.43h71.43V47.62z M95.24,190.49H47.62v23.81h47.62V190.49z M71.43,333.35v-47.62H47.62v23.81H0v47.62h23.81
	v-23.81h23.81v23.81h47.62v-23.81H71.43z M47.62,547.65h71.43v-71.43H47.62V547.65z M119.05,285.73H95.24v47.62h23.81V285.73z
	 M0,595.28h166.68V428.6H0V595.28z M23.81,452.41h119.06v119.06H23.81V452.41z M119.05,214.3h71.43v-23.81h-71.43V214.3z
	 M166.68,309.54v-23.81h-23.81v23.81H166.68z M214.3,71.43h-23.81v23.81h23.81V71.43z M214.3,142.87h-23.81v47.62h23.81V142.87z
	 M190.49,309.54h23.81v-23.81h-23.81V309.54z M238.11,380.98v23.81h47.62v-23.81h-23.81v-23.81h-23.81v-23.81H214.3v23.81h-23.81
	v-23.81h-71.43v23.81H95.24v23.81H71.43v23.81h47.62v-23.81h23.81v-23.81h23.81v23.81h-23.81v23.81h47.62v-23.81H238.11z
	 M190.49,500.03v47.62h23.81v-47.62H190.49z M190.49,595.28h23.81v-23.81h-23.81V595.28z M238.11,23.81h47.62V0h-95.24v47.62h47.62
	V23.81z M238.11,119.05V95.24H214.3v23.81H238.11z M261.92,71.43V47.62h-23.81v23.81H261.92z M261.92,238.11v-95.24h-23.81v71.43
	H214.3v47.62h23.81v-23.81H261.92z M238.11,452.41v-47.62h-47.62v71.43h71.43v-23.81H238.11z M238.11,500.03v23.81h23.81v-23.81
	H238.11z M285.73,309.54h-47.62v23.81h47.62V309.54z M285.73,476.22h-23.81v23.81h23.81V476.22z M285.73,166.68h23.81v-23.81h23.81
	v-23.81h47.62v47.62h23.81V95.24h-23.81V71.43h-47.62V47.62h-47.62v23.81h23.81v23.81h-23.81v23.81h-23.81v23.81h23.81V166.68z
	 M309.54,380.98v-47.62h-23.81v47.62H309.54z M333.35,0h-23.81v23.81h23.81V0z M333.35,404.79v-23.81h-23.81v23.81H333.35z
	 M309.54,404.79h-23.81v23.81h-23.81v23.81h23.81v23.81h23.81v-23.81h47.62V428.6h-47.62V404.79z M309.54,523.84h23.81v-23.81
	h-47.62v23.81h-23.81v23.81H214.3v23.81h47.62v23.81h71.43v-23.81h23.81v-23.81h-47.62V523.84z M333.35,142.87v23.81h23.81v-23.81
	H333.35z M333.35,500.03h23.81v-23.81h-23.81V500.03z M357.16,190.49h23.81v-23.81h-23.81V190.49z M380.98,357.16h-47.62v23.81
	h47.62V357.16z M404.79,0h-23.81v71.43h23.81V0z M357.16,523.84v23.81h47.62v-23.81H357.16z M428.6,190.49v23.81h23.81v-23.81H428.6
	z M452.41,428.6H428.6v23.81h23.81V428.6z M547.65,47.62h-71.43v71.43h71.43V47.62z M500.03,190.49v23.81h23.81v-23.81H500.03z
	 M523.84,357.16h47.62v-23.81h-47.62V357.16z M547.65,238.11h23.81V214.3h23.81v-23.81h-47.62V238.11z M547.65,261.92h-47.62v23.81
	h23.81v23.81h47.62v23.81h23.81v-47.62h-47.62V261.92z M523.84,380.98v-23.81h-23.81v23.81h-23.81v-47.62h23.81v-47.62h-23.81v23.81
	h-23.81v-47.62h47.62v-23.81h-23.81V214.3h-23.81v23.81h-47.62v-47.62h-23.81v71.43h23.81v23.81h-71.43V214.3h-23.81v47.62h-71.43
	v23.81h71.43v23.81h23.81v23.81h47.62v23.81h47.62v23.81h-47.62v23.81h-23.81v23.81h23.81v23.81h-23.81v23.81h23.81v23.81h23.81
	v23.81h23.81v23.81h47.62v23.81H428.6v-23.81h-23.81v47.62h190.49v-23.81h-47.62v-23.81h23.81v-23.81h23.81v-47.62h-23.81v23.81
	h-47.62v23.81h-23.81v-71.43h47.62v23.81h23.81v-23.81h23.81v-95.24h-23.81v23.81H523.84z M476.22,523.84h-23.81v-23.81h23.81
	V523.84z M476.22,476.22h-71.43v-71.43h71.43V476.22z M523.84,547.65v23.81h-23.81v-23.81H523.84z M571.46,428.6h-71.43v-23.81
	h71.43V428.6z M428.6,0v166.68h166.68V0H428.6z M571.46,142.87H452.41V23.81h119.06V142.87z"/>
</svg>
