<svg xmlns="http://www.w3.org/2000/svg" viewBox="0 0 595.28 595.28">
  <path fill="#B7824A" fill-rule="evenodd" stroke="#B7824A" stroke-width="2.835" stroke-miterlimit="2.613" d="M296.43 202.46c-1.27-4.81-6.19-7.68-10.99-6.41-4.81 1.27-7.68 6.19-6.41 11 7.46 21.22 24.97 30.3 42.05 42.51l-12.36-23.26-11.79-21.13-.5-2.71zM137.18 540.34c-1.32-2.76-4.63-3.93-7.39-2.61-2.76 1.32-3.93 4.63-2.61 7.39 50.97 88.08 238.79 40.93 308.38 3.6-66.59 27.07-252.81 73.58-298.38-8.38zm11.5-4.32c-38.02-36.54-23.3-154.64-12.87-202.14 1.68-2.56.97-6-1.59-7.68-2.56-1.68-6-.97-7.68 1.59-14.33 63.51-32.32 185.4 32.44 226.84 77.11 49.35 204.64 9.5 280.18-26.18-77.67 29.03-220.87 74.47-290.48 7.57zM330.12 307.3c3.21 64.83 12.26 127.16 24.07 191.58-4.22-64.97-11.98-129.15-13.44-194.02 12.21-2.91 24.65-6.26 37.29-10.09-12.96 2.71-25.33 5.03-37.36 7.02-.02-1.29-.06-2.59-.08-3.88.46-2.36-1.62-4.56-4.65-4.92s-5.85 1.27-6.31 3.63c.09 2.3.21 4.59.31 6.88-55.24 8.31-103.82 9.16-166.2 5.07-69.55-4.56-143.79-41.87-45.04-54-3.7 1.56-7.43 3.04-11.22 4.41-14.34 5.19-7.06 1.63-21.53 10.6 91.82-9.26 163.72-74.48 197.57-155.75 20.46 72.96 65.64 139.21 127.65 181.43 1.11 71.88 9.2 137 18.33 208.08-1.39-68.06-7.62-133.29-7.35-200.97 33.84 20.83 72.26 34.67 114.11 38.88-17.52-10.87-8.71-6.55-26.08-12.84-120.93-43.79-204.6-167.67-201.83-295.14 0-4.29-1.48-8.23-3.93-11.37.1-2.21.19-4.42.24-6.63 0-8.43-6.83-15.26-15.26-15.26s-15.26 6.83-15.26 15.26c.06 2.77.06 5.54.02 8.31-1.74 2.82-2.77 6.13-2.77 9.69.12 5.75.43 11.49.87 17.23-10.09 79.21-59.08 152.57-128.95 192-1.22-1.83-3.32-3-5.67-2.93-174.83 15.92-34.96 117.89 192.47 67.73z" clip-rule="evenodd"/>
</svg>
