<svg xmlns="http://www.w3.org/2000/svg" viewBox="0 0 595.28 595.28">
  <circle cx="297.64" cy="297.64" r="283.46" fill="#09A94B" fill-rule="evenodd" clip-rule="evenodd"/>
  <g fill="#FFF" fill-rule="evenodd" clip-rule="evenodd">
    <path d="M155.74 309.16c5.42 46.33 26.31 131.64 12.39 162.61-1.71-3.82-1.39-2.54-1.97-6.19-9.73-62.05-25.07-110.83-32-162.37-.73-7.03 3.11-13.49 8.63-14.64 1.42-2.33 3.47-4.08 5.92-4.8 93.91-3.66 184.54.63 278.08 11.13-91.93 8.64-179.7 7.13-271.05 14.26z"/>
    <path d="M443.46 280.71c-44.48 34.49-62.38 114.1-52.18 169.42l.05 3.65c-2.96-2.75-8.47-8.65-9.52-12.79-14.64-58.11 7.05-133.21 46.11-176.3 2.13-1.86 1.06-.93 3.19-2.79 4.64-3.82 11.16-2.71 14.57 2.49 3.41 5.18 2.42 12.49-2.22 16.32z"/>
    <path d="M101.64 470.74c34.61-68.62 258.99-55.7 303.13-46.03 23.03 5.05 39.41 10.86 57.72 22.51-15.75-1.39-58.41-14.07-58.57-14.1-34.22-4.71-261.28-6.16-286.21 45.72-1.88 5.3-6.99 7.78-11.43 5.54-4.43-2.22-6.51-8.33-4.64-13.64zm273.32-354.96c42.06 39.47 43.17 66.05 101.48 116.8 39.68 34.54 62.85 47.54 104.67 74.59-23.02 10.6-82.05-18.47-86.64-20.49-54.25-23.99-127.9-77.94-174.12-125.4-82.57 58.05-232.53 142.56-306.18 152.17l11.78-11.4 24.07-17.99c72.56-50.83 181.01-114.73 237.35-173.46 1.65-3.4 4.52-6.52 8.35-9.2 10.62-10.14 31.64-14.26 49.87-9.17 4.31 1.2 8.11 2.83 11.35 4.76 10.25 4.3 17.18 11.03 18.02 18.79z"/>
  </g>
</svg>
