<svg xmlns="http://www.w3.org/2000/svg" viewBox="0 0 595.28 595.28">
  <path d="M23.8 190.5H0v47.6h47.62v-23.8h-23.8v-23.8zM166.7 0H0v166.68h166.68V0zm-23.8 142.87H23.8V23.8h119.07v119.07zM23.8 261.92v23.8h23.82v-23.8h-23.8zm23.82 71.43h-23.8v71.43h47.6v-23.8h-23.8v-47.63zm47.62-23.8v-23.82H47.62v23.8h47.62zm23.8-261.93h-71.4v71.43h71.42V47.62zm-23.8 285.73h-23.8v47.62h23.8v23.8h23.8v-47.6h-23.8v-23.82zm-47.62 214.3h71.43v-71.43H47.62v71.43zm95.25-309.54v-23.8h23.8v-23.8H47.63v23.8h23.8V262h47.63v-23.8h23.82zM119.05 262v23.8h23.8V262h-23.8zm0 95.24h47.62v-23.8h-23.8V309.6h-23.82v47.62zM0 595.28h166.68V428.6H0v166.68zM23.8 452.4h119.07v119.07H23.8V452.4zm166.7-190.48v-23.8h-47.63v23.8h47.62zm-47.63 47.62h47.62v-23.8h-47.7v23.8zm0 95.25h23.8v-23.9h-23.8v23.8zm47.62-166.7h23.8v-23.8h-23.8v23.8zm0 47.6h23.8v-23.8h-23.8v23.8zm0 95.2h23.8v-47.6h-23.8v47.6zm0 47.6h23.8v-23.8h-23.8v23.8zm0 23.8v95.23h23.8v-95.2h-23.8zM214.3 0v23.8h23.8V0h-23.8zm23.8 261.92v-23.8h-23.8v23.8h23.8zm0 71.43v-47.62h-23.8v47.62h23.8zm23.82 71.44v-23.9H214.3v23.8h47.62zM214.3 571.4h-23.8v23.8h71.42v-23.8h-23.8v-23.8H214.3v23.8zm23.8-404.78h-23.8v-23.8h23.8v23.8h23.82V119h47.62V95.2h47.62V71.4h-47.62V47.6h-23.8v23.8H238.1v47.63h-23.8v-71.4h-23.8V190.5h23.8v23.8h71.43v-23.8H238.1v-23.82zm0 380.97h23.82v-23.8h-23.8v23.8zm71.45-523.8v23.8h47.62v23.8h23.8V47.6h23.82V23.8h-71.5V0h-71.4v23.8h-23.8v23.82h47.6v-23.8h23.8zm-23.8 119v47.62h23.8V142.8h-23.8zM261.9 261.9v23.8h47.62v-23.8H261.9zm71.43 190.5v23.8h23.8v-47.6h-23.8v-47.62h-23.8v-23.8H285.7v47.6h23.8v23.82h-47.6v71.43h23.8V452.4h47.63zm0-309.55v-23.8h-23.8v23.8h23.8zm47.63 166.67V261.9h23.8v47.63h47.63v-23.8h23.8V214.3h71.4v-23.8h-119v23.8h23.8v23.8h-23.8v-23.8h-47.7v23.8h-47.6v-23.8h23.8v-23.8h47.64v-47.63H380.9v23.8h-23.8v-23.8h-23.8v47.62h-23.8v71.4h23.8v23.8h-23.8v23.8h-23.8v23.8h47.63v-23.8h47.62zm-23.82 47.62h23.8v-23.8h-47.6v47.6h23.8v-23.8zm-23.8 238.12h23.8v-23.8h-23.8v23.8zm47.62-476.23h-23.8v23.8h23.8v-23.8zm23.8-23.8H381v23.8h23.8v-23.8zM381 309.53v23.8h23.8v-23.8H381zm71.4 119.07h-23.8v23.8h23.8v-23.8zm23.82-95.25v-23.8h-23.8v23.8h23.8zm23.8-23.8v-23.82h-23.8v23.8h23.8zM547.66 47.6h-71.43v71.43h71.43v-71.4zm-23.8 190.5h-23.82v23.8h23.8v-23.8zm-23.82 142.86h23.8v-71.43h-23.8v71.43zm0 23.8V381h-23.8v-23.8H428.6v-23.82h-23.8V381h-47.63v47.62h23.8v47.62h-23.8v47.62h-23.8v-23.8h-47.63v23.8h23.8v23.8h-23.8v47.63h23.8v-23.8h23.82v-23.9h23.8v23.8h47.63v-47.6h-23.9V500h23.8v23.8h47.6V500h23.8v23.8H500V500h23.83v47.63h23.8v-23.8h23.82v47.6h-47.62v-23.8H476.2v-23.8h-23.8v23.8h-23.8v23.8h-23.8v23.82h190.48V476.2h-71.43v-23.8h71.43v-23.8h-47.62v-47.62h-23.8v23.8h-23.83zm-23.8 71.44H404.8v-71.4h71.42v71.42zm95.23-261.92h-23.8v47.62h23.8v23.8h-47.62v23.82h23.8v47.62h23.82v23.8h23.8v-47.6h-23.8v-23.82h23.8V238.1h-23.8v-23.8zM428.6 0v166.68h166.68V0H428.6zm142.86 142.87H452.4V23.8h119.07v119.07z"/>
</svg>
