<svg xmlns="http://www.w3.org/2000/svg" viewBox="0 0 595.28 595.28">
  <path fill="#010101" d="M426.62 377.5V69.43c0-41.27-36.3-74.2-78.58-68.86-21.43 2.78-39.6 15.58-50.2 33.63-13.6-22.82-39.8-37.3-68.86-33.63-34.33 4.37-60.32 34.92-60.32 70.94v306c-11.3 2.18-19.84 12.1-19.84 24v24.02c0 35.12 25.9 64.3 59.53 69.55V555.6h24.8l29.77 39.68h69.45l29.76-39.7h24.8v-60.5c33.63-5.37 59.53-34.44 59.53-69.56v-24c0-12.02-8.53-21.94-19.84-24.02zm-76-357.28c30.26-3.97 56.16 19.64 56.16 49.2V377h-39.7V69.43c0-5.46-4.45-9.92-9.9-9.92s-9.93 4.47-9.93 9.93V377h-39.7V71.5c0-26.08 18.56-48.1 43.07-51.28zM188.5 71.52c0-26.1 18.55-48.13 43.06-51.3 30.26-3.97 56.16 19.64 56.16 49.2V377h-39.7V69.43c0-5.46-4.45-9.92-9.9-9.92-5.47 0-9.93 4.47-9.93 9.93V377h-39.7V71.5zm133.94 503.9h-49.6l-14.9-19.83h79.38l-14.88 19.83zm44.65-39.67H228.2v-9.92h138.9v9.92zm-138.9-29.77v-9.92h138.9v9.92H228.2zm198.42-80.46c0 27.98-22.72 50.7-50.7 50.7H219.36c-27.98 0-50.7-22.72-50.7-50.7v-24c0-2.6 2.08-4.67 4.66-4.67H421.96c2.58 0 4.66 2.08 4.66 4.66v24.02z"/>
</svg>
