<svg xmlns="http://www.w3.org/2000/svg" viewBox="0 0 595.28 595.28">
  <g fill="#010101">
    <path d="M403.87 417.63c-4.65 17.66-14.77 32.64-28.48 42.17-1.2.8-2.4 1.6-3.62 2.36-1.13.7-2.2 1.3-3.2 1.8-8.86 4.4-18.32 7.4-28.1 8.9-4.87.75-9.72 1.12-14.7 1.1-6.53-.02-13.67-.97-21.85-2.9-5.83-1.36-11.67 2.2-13.06 8.04-1.38 5.83 2.22 11.68 8.05 13.06 9.82 2.33 18.6 3.47 26.8 3.5h.32c5.9 0 11.85-.47 17.7-1.35 12.02-1.83 23.62-5.5 34.48-10.9 1.5-.75 3.14-1.68 4.86-2.73 1.6-.98 3.15-2 4.68-3.05 17.95-12.48 31.12-31.82 37.08-54.47l1.57-5.98c6.7-25.4 18.18-48.88 34.13-69.78 1.88-2.48 2.62-5.64 2.02-8.68-.6-3.05-2.47-5.7-5.14-7.27-15.1-8.9-31-15.03-47.17-18.22-11.13-2.2-22.52-3.5-33.9-3.9-4.84-.18-9.73-.12-14.5.15-4.8.27-9.67.76-14.47 1.47-4.8.7-9.6 1.64-14.23 2.77-4.67 1.12-9.37 2.48-13.97 4.04-11.8 4-22.83 9.82-32.77 17.3-9.7 7.28-18.2 16-25.2 25.93-7.02 9.9-12.43 20.8-16.06 32.37-5.73 18.33-5.28 38.37 1.28 56.42l5.78 15.92c.2.56.48 1.08.76 1.6-7.96 18.48-13.2 38.13-15.4 58.13-.67 5.96 3.63 11.32 9.58 11.98.4.04.8.06 1.2.06 5.46 0 10.16-4.12 10.77-9.67 3.17-28.62 13.27-56.45 29.22-80.48 9.18-13.83 20.22-26.34 32.8-37.18 4.54-3.9 5.05-10.76 1.14-15.3-3.9-4.54-10.76-5.04-15.3-1.14-14.08 12.13-26.44 26.13-36.72 41.62-1.3 1.97-2.5 4.03-3.75 6.04-4.62-13.37-4.88-28.07-.66-41.54 2.95-9.4 7.35-18.26 13.06-26.33 5.72-8.08 12.62-15.2 20.52-21.13 8.1-6.08 17.07-10.82 26.7-14.08 3.98-1.35 8.04-2.53 12.1-3.5 4.02-.98 8.17-1.78 12.3-2.4 4.15-.6 8.35-1.02 12.5-1.25 4.14-.24 8.37-.28 12.56-.14 10.2.35 20.44 1.53 30.43 3.5 10.1 2 20.1 5.35 29.85 10.02-13.88 20.5-24.1 43.02-30.44 67.1l-1.53 5.98zM259.47 19.18c-3.27-6.7-8.95-11.7-16-14.13-14.45-4.94-30.23 2.77-35.25 17.17l-28.1 80.67c-9.83-16.12-27.52-26.93-47.74-26.93-20.15 0-37.8 10.75-47.64 26.77l-28.1-81.6c-2.47-7.16-7.6-12.86-14.44-16.07-6.85-3.2-14.5-3.5-21.77-.73C6.37 9.68-.8 25 4.08 39.22L62.62 209.5v172.35c0 6 4.86 10.85 10.85 10.85 6 0 10.85-4.86 10.85-10.85V207.68c0-.22-.06-.43-.07-.65-.02-.38-.05-.75-.1-1.13-.08-.4-.17-.76-.28-1.14-.06-.2-.08-.4-.15-.6l-59.12-172c-1.06-3.07.5-6.4 3.73-7.6 2.06-.8 3.8-.24 4.66.16.85.4 2.4 1.38 3.12 3.47l41.52 120.5c6.74 19.73 23.45 33.97 43.35 37.97l.33.07c1.52.3 3.07.53 4.63.7l1.1.14c1.77.16 3.55.27 5.35.27s3.6-.1 5.36-.27c.37-.03.73-.1 1.1-.13 1.56-.17 3.1-.4 4.63-.7l.32-.07c19.9-4 36.6-18.23 43.33-37.92l41.6-119.4c1.1-3.16 4.56-4.85 7.72-3.77 1.55.52 2.8 1.62 3.5 3.1.73 1.46.82 3.12.3 4.66l-59.18 170.76c-.4 1.14-.6 2.35-.6 3.55V405c0 8.16-6.66 14.8-14.82 14.8h-27c2.9-5.57 4.58-11.9 4.58-18.6v-47.55c0-6-4.86-10.85-10.85-10.85s-10.84 4.86-10.84 10.85v47.54c0 10.25-8.35 18.6-18.6 18.6h-51.6c-7.42 0-13.9-5.03-15.75-12.22L22 354.52c-.65-2.52-.1-5.14 1.5-7.2 1.6-2.06 4-3.23 6.6-3.23 5.98 0 10.84-4.87 10.84-10.86 0-6-4.86-10.85-10.85-10.85-9.36 0-18 4.23-23.75 11.63-5.73 7.4-7.7 16.83-5.36 25.9l13.63 53.05c4.3 16.8 19.43 28.53 36.77 28.53h114.3c20.13 0 36.5-16.37 36.5-36.5V209.5L260.76 40.5c2.45-7.05 2-14.6-1.28-21.3zM132.4 97.66c18.88 0 34.25 15.36 34.25 34.24 0 15.7-10.63 28.94-25.07 32.96-.9.24-1.8.5-2.73.66-.53.1-1.07.17-1.6.24-1.6.22-3.2.38-4.84.38-1.63 0-3.24-.17-4.83-.38-.54-.08-1.07-.15-1.6-.24-.93-.17-1.83-.42-2.74-.66-14.43-4.02-25.06-17.26-25.06-32.96 0-18.88 15.35-34.24 34.23-34.24zM584.42 571.12H10.86c-6 0-10.85 4.86-10.85 10.85s4.87 10.85 10.86 10.85h573.57c6 0 10.85-4.86 10.85-10.85s-4.86-10.85-10.86-10.85zM248.37 266.93c2.32 0 4.66-.74 6.63-2.27l98.8-76.55 68.08 52.73c1.97 1.53 4.3 2.27 6.63 2.27 3.25 0 6.45-1.45 8.6-4.2 3.67-4.74 2.8-11.55-1.93-15.22l-74.7-57.87c-.2-.14-.4-.23-.6-.36-.35-.23-.68-.45-1.03-.63-.3-.15-.6-.27-.92-.4-.34-.14-.67-.28-1-.38-.35-.1-.7-.17-1.04-.23-.34-.08-.67-.14-1.02-.17s-.7-.03-1.04-.03c-.35 0-.7 0-1.04.03-.34.03-.67.1-1 .16-.36.05-.7.12-1.05.22-.34.1-.67.24-1 .37-.3.12-.62.24-.93.4-.35.2-.68.4-1 .63-.2.14-.43.23-.62.38l-105.46 81.7c-4.74 3.68-5.6 10.5-1.93 15.23 2.12 2.75 5.32 4.2 8.57 4.2zM493.4 194.26c0-6-4.87-10.85-10.86-10.85s-10.85 4.87-10.85 10.86v79.83c0 .2.04.4.06.63.02.38.05.76.1 1.14.07.35.15.68.24 1.02l.3 1c.14.33.28.65.44.96.15.3.3.6.5.9.18.3.4.6.6.9.2.26.4.52.65.78.25.3.54.55.84.8.16.14.3.3.46.43l100.8 78.1c1.97 1.52 4.3 2.26 6.62 2.26 3.24 0 6.45-1.45 8.6-4.2 3.66-4.74 2.8-11.55-1.94-15.22l-96.6-74.82v-74.52zM385.13 537.4h145.3c6 0 10.86-4.86 10.86-10.85V379.22c0-6-4.87-10.85-10.86-10.85s-10.85 4.86-10.85 10.85V515.7H385.12c-6 0-10.85 4.86-10.85 10.85s4.86 10.85 10.85 10.85zM463.75 56.08c-3.9-4.54-10.76-5.05-15.3-1.13-8.48 7.32-13.36 17.9-13.36 29.03 0 11.14 4.86 21.72 13.34 29.02 3.75 3.24 5.82 7.7 5.82 12.58 0 4.9-2.07 9.36-5.82 12.6-4.54 3.9-5.04 10.76-1.13 15.3 2.16 2.5 5.2 3.76 8.23 3.76 2.5 0 5.03-.86 7.08-2.63 8.5-7.3 13.36-17.88 13.37-29.02 0-11.13-4.87-21.72-13.36-29.03-3.74-3.23-5.8-7.7-5.8-12.58s2.06-9.36 5.8-12.6c4.56-3.9 5.07-10.75 1.15-15.3zM194.1 515.7h-121c-6 0-10.86 4.86-10.86 10.85S67.1 537.4 73.1 537.4h121c6 0 10.85-4.86 10.85-10.85s-4.85-10.85-10.84-10.85z"/>
  </g>
</svg>
