<svg xmlns="http://www.w3.org/2000/svg" viewBox="0 0 595.28 595.28">
  <path fill="#010101" d="M427.88 222.2c0-19.52-7.5-38.28-21.77-52.55l-58.54-59.3V69.8h14.26c8.26 0 15-6.75 15-15V15c0-8.25-6.75-15-15-15H233.46c-8.26 0-15 6.76-15 15v39.04c0 8.26 6.75 15 15 15h14.26v40.55l-58.55 59.3c-13.5 14.25-21.77 33.02-21.77 52.54v343.8c0 16.5 13.5 30.03 30.03 30.03h200.43c16.52 0 30.03-13.5 30.03-30.03V222.2zm-30.03 351.3H198.17c-4.5 0-7.5-3-7.5-7.5V222.2c0-13.5 5.24-27.02 15-36.78l65.3-64.56V69.8h54.8v51.05l65.32 64.56c9.75 9.77 15 23.28 15 36.8V566c-.74 4.5-3.75 7.5-8.25 7.5z"/>
</svg>
