<?xml version="1.0" encoding="utf-8"?>
<!-- Generator: Adobe Illustrator 15.0.0, SVG Export Plug-In . SVG Version: 6.00 Build 0)  -->
<!DOCTYPE svg PUBLIC "-//W3C//DTD SVG 1.1//EN" "http://www.w3.org/Graphics/SVG/1.1/DTD/svg11.dtd">
<svg version="1.1" id="Layer_1" xmlns="http://www.w3.org/2000/svg" xmlns:xlink="http://www.w3.org/1999/xlink" x="0px" y="0px"
	 width="595.28px" height="595.28px" viewBox="123.31 0 595.28 595.28" enable-background="new 123.31 0 595.28 595.28"
	 xml:space="preserve">
<path display="none" fill="#FFFFFF" d="M420.82,573.12L311.9,464.2l9.9-9.9c16.97-17.68,26.88-40.3,26.88-65.07
	c0-50.92-41.02-91.95-91.94-91.95c-24.05,0-47.4,9.2-64.36,26.88l-10.6,10.6l-9.9-10.6c-66.5-71.43-64.38-181.06,4.22-249.66
	c33.96-33.95,79.22-52.34,127.32-52.34c43.14,0,84.16,15.56,117.4,43.14c32.53-28.3,73.55-43.14,117.4-43.14
	c48.1,0,93.37,18.4,127.32,53.04c33.95,33.95,53.04,79.2,53.04,127.3c0,48.1-18.4,93.37-52.34,127.32L420.82,573.12L420.82,573.12z
	 M351.52,464.2l69.3,69.3l224.2-224.9c28.3-28.3,44.56-66.48,44.56-107.5c0-40.3-15.56-78.5-44.56-107.5
	c-28.3-28.3-66.48-44.56-107.5-44.56c-41.02,0-78.5,15.56-107.5,44.56l-9.2,10.6l-9.9-9.9c-28.28-28.28-66.47-44.55-106.8-44.55
	c-40.3,0-78.5,15.56-106.8,44.56c-54.45,54.48-59.4,140.06-12.72,200.17c21.22-16.27,46.68-24.75,72.85-24.75
	c66.48,0,120.23,53.76,120.23,120.24c-0.7,26.87-9.2,53.04-26.17,74.26L351.52,464.2z M263.82,421.76c-7.8,0-14.16,6.37-14.16,14.15
	c0,7.78,6.37,14.17,14.15,14.17c7.8,0,14.17-6.37,14.17-14.15s-6.37-14.14-14.15-14.14L263.82,421.76z M249.66,353.86v47.4
	c0,7.78,6.37,14.14,14.15,14.14c7.8,0,14.17-6.37,14.17-14.14v-47.4c0-7.77-6.37-14.13-14.15-14.13c-7.77,0-14.14,6.36-14.14,14.14
	L249.66,353.86z"/>
<path fill="#010101" d="M261.15,345.55c-5.13,0-9.3,4.17-9.3,9.3c0,0.19-0.01,0.38-0.03,0.56v47.64c0,5.13,4.18,9.3,9.31,9.3
	c5.14,0,9.33-4.17,9.33-9.3v-48.21C270.45,349.72,266.28,345.55,261.15,345.55z M261.15,429.02c-0.15,0-0.3-0.01-0.45-0.02
	c-4.94,0.23-8.88,4.31-8.88,9.3c0,5.14,4.18,9.33,9.31,9.33c5.14,0,9.33-4.17,9.33-9.31C270.45,433.19,266.28,429.02,261.15,429.02z
	 M666.13,75.01c-33.17-33.84-77.87-52.46-125.9-52.46c-43.88,0-84.01,14.74-116.07,42.63c-1.88,1.64-4.67,1.67-6.58,0.08
	c-33.67-27.94-73.84-42.71-116.16-42.71c-47.81,0-92.52,18.38-125.9,51.75c-67.95,67.95-69.78,176.39-4.17,246.87l6.47,6.93
	l7.02-7.02c17.88-18.61,42.41-28.87,69.09-28.87c26.41,0,51.19,10.24,69.77,28.83c18.59,18.59,28.82,43.37,28.82,69.78
	c0,26-9.94,50.1-28.76,69.71c-0.02,0.03-0.05,0.05-0.07,0.08l-6.47,6.47l103.61,103.61l246.02-243.9
	c33.35-33.36,51.73-78.08,51.73-125.89C718.59,153.54,699.96,108.83,666.13,75.01z M652.45,312.4L424.42,541.14
	c-0.95,0.96-2.25,1.49-3.6,1.5h0c-1.35,0-2.64-0.54-3.6-1.49L347.08,471c-1.57-1.3-2.24-3.45-1.59-5.46
	c0.21-0.64,0.53-1.23,0.96-1.73c15.9-19.94,24.69-44.94,25.42-72.31c-0.03-64.6-52.6-117.15-117.2-117.15
	c-25.87,0-50.42,8.34-71,24.12c-2.22,1.7-5.4,1.29-7.11-0.92c-23.77-30.61-35.55-68.75-33.16-107.38
	c2.4-38.76,18.92-75.31,46.52-102.93c29.44-30.17,69.31-46.81,112.22-46.81c42.19,0,82.04,16.62,112.22,46.8l6.21,6.21l5.78-6.66
	c0.08-0.09,0.16-0.18,0.25-0.26c30.62-30.62,69.68-46.81,112.93-46.81c42.64,0,82.75,16.62,112.94,46.81
	c30.19,30.19,46.81,70.29,46.81,112.94C699.27,242.1,682.64,282.21,652.45,312.4z"/>
</svg>
