<svg xmlns="http://www.w3.org/2000/svg" viewBox="0 0 595.28 595.28">
  <path fill="#010101" d="M7.45 593.97h580.38c4.1 0 7.45-3.34 7.45-7.45 0-4.1-3.34-7.45-7.45-7.45H558.1c.15-.58.37-1.13.37-1.76 0-34.96-26.54-63.8-60.53-67.54v-28.32c12.3-.13 36.14-2.58 52.3-18.27 22.1-21.43 19.95-58.13 19.85-59.68-.25-3.65-3.1-6.6-6.74-6.94-1.56-.16-38.18-3.4-60.24 18.04-5.38 5.22-9.3 11.35-12.2 17.67-2.65-6-6.22-11.87-11.15-16.94-21.45-22.1-58.15-19.96-59.68-19.85-3.65.24-6.6 3.1-6.94 6.73-.15 1.56-3.4 38.18 18.04 60.25 15.73 16.2 39.6 19.35 51.84 19.85v27.47c-34 3.72-60.53 32.6-60.53 67.55 0 .62.22 1.18.37 1.76H304.73v-82.93h.4c14.66 0 45.37-2.58 65.82-22.43 27.1-26.3 24.45-71.5 24.33-73.4-.24-3.65-3.1-6.6-6.73-6.94-1.9-.17-47-4.17-74.1 22.12-3.82 3.7-7 7.8-9.72 12.1v-31.07c6.54-6.33 25.72-27.04 25.5-52.38-.28-29.87-27.47-52.93-28.63-53.9-2.8-2.34-6.9-2.3-9.66.1-1.14.98-27.9 24.53-27.65 54.4.2 24.22 18.14 43.96 25.52 51.07v29.8c-2.16-3.23-4.56-6.36-7.37-9.26-26.3-27.1-71.52-24.47-73.4-24.33-3.65.24-6.6 3.1-6.94 6.73-.17 1.9-4.16 47.02 22.13 74.1 20.08 20.7 51.16 24.05 65.6 24.42v81.82H170.1c.14-.58.36-1.13.36-1.76 0-34.97-26.54-63.82-60.53-67.55v-28.33c12.3-.13 36.14-2.58 52.3-18.27 22.1-21.43 19.95-58.13 19.85-59.68-.24-3.64-3.1-6.58-6.72-6.93-1.57-.17-38.17-3.4-60.25 18.03-5.37 5.22-9.3 11.35-12.18 17.67-2.66-6-6.23-11.86-11.16-16.94-21.43-22.1-58.14-19.96-59.68-19.85-3.64.25-6.58 3.1-6.93 6.74-.15 1.55-3.4 38.17 18.04 60.24 15.72 16.2 39.58 19.36 51.83 19.85v27.47c-34 3.72-60.53 32.6-60.53 67.55 0 .62.2 1.18.36 1.76H7.46c-4.12 0-7.46 3.35-7.46 7.46 0 4.07 3.34 7.4 7.45 7.4zM324.82 426.2c16.62-16.15 43.26-18.2 55.62-18.2-.36 12.33-3.18 38.83-19.87 55.02-16.62 16.14-43.26 18.2-55.62 18.2.37-12.33 3.18-38.83 19.87-55.03zm-45.62-81.6c-.14-16.22 11.08-30.92 17.74-38.2 6.78 7.13 18.24 21.58 18.4 37.88.13 16.2-11.08 30.9-17.73 38.2-6.8-7.18-18.26-21.67-18.4-37.88zm-44.26 117.88c-16.13-16.6-18.18-43.24-18.2-55.6 12.36.38 38.9 3.24 55.03 19.84 14.05 14.48 17.42 36.54 18.07 50.16v5.45c-12.4-.37-38.77-3.22-54.9-19.85zm278.54-37.2c12.2-11.83 31.5-13.87 41.68-14.06-.48 10.16-3.1 29.4-15.3 41.24-12.2 11.84-31.5 13.88-41.68 14.07.5-10.16 3.1-29.4 15.3-41.24zm-71.6 26.8c-11.83-12.2-13.87-31.52-14.06-41.7 10.16.5 29.4 3.12 41.24 15.3 11 11.34 13.5 28.7 13.97 39.3v2.4c-10.2-.5-29.34-3.14-41.14-15.3zM437.4 577.3c0-29.26 23.8-53.07 53.08-53.07s53.08 23.8 53.08 53.08c0 .63.2 1.2.36 1.77H437.04c.15-.58.36-1.13.36-1.76zm-311.92-152c12.2-11.85 31.5-13.9 41.68-14.08-.48 10.16-3.1 29.4-15.3 41.24-12.2 11.84-31.5 13.88-41.68 14.07.5-10.16 3.1-29.4 15.3-41.24zm-71.6 26.77c-11.84-12.2-13.87-31.5-14.06-41.68 10.16.48 29.4 3.1 41.24 15.3 11.03 11.35 13.52 28.78 13.97 39.35v2.3c-10.18-.48-29.34-3.1-41.14-15.28zM49.4 577.3c0-29.26 23.8-53.07 53.08-53.07 29.27 0 53.08 23.8 53.08 53.08 0 .63.2 1.2.36 1.77H49.05c.14-.58.35-1.13.35-1.76zM212 140.63c0 34.55 28.1 62.67 62.66 62.67 34.55 0 62.66-28.1 62.66-62.67 0-34.55-28.1-62.66-62.66-62.66-34.56 0-62.67 28.1-62.67 62.66zm62.66-47.76c26.34 0 47.76 21.43 47.76 47.76 0 26.34-21.43 47.77-47.76 47.77s-47.77-21.43-47.77-47.77c0-26.35 21.42-47.76 47.76-47.76zM282.1 42.76v-34c0-4.1-3.33-7.45-7.44-7.45s-7.45 3.35-7.45 7.46v34c0 4.1 3.35 7.45 7.46 7.45s7.45-3.33 7.45-7.44zM343.65 19.58c-3.58-2.05-8.13-.8-10.16 2.8L316.64 51.9c-2.03 3.57-.8 8.12 2.8 10.16 1.15.66 2.42.98 3.67.98 2.6 0 5.1-1.35 6.48-3.76l16.84-29.54c2.03-3.57.78-8.12-2.8-10.16zM384.33 67l-29.26 17.34c-3.54 2.1-4.7 6.67-2.6 10.2 1.38 2.36 3.86 3.66 6.4 3.66 1.3 0 2.6-.34 3.8-1.04l29.25-17.33c3.54-2.1 4.7-6.67 2.6-10.2-2.07-3.54-6.64-4.7-10.2-2.62zM413.97 138.3c-.07-4.1-3.52-7.5-7.58-7.3l-34 .56c-4.12.07-7.4 3.46-7.33 7.58.07 4.07 3.4 7.32 7.45 7.32h.13l34-.57c4.1-.1 7.4-3.48 7.32-7.6zM364.07 181.14c-3.6-1.98-8.14-.66-10.1 2.95-2 3.6-.67 8.13 2.94 10.1l29.83 16.34c1.13.62 2.36.92 3.57.92 2.64 0 5.18-1.4 6.54-3.87 1.98-3.6.66-8.14-2.95-10.12l-29.83-16.34zM322.02 217.65c-3.5 2.15-4.6 6.74-2.44 10.24l17.8 28.96c1.4 2.3 3.86 3.55 6.37 3.55 1.33 0 2.67-.35 3.9-1.1 3.5-2.14 4.6-6.73 2.44-10.24l-17.82-28.97c-2.16-3.5-6.75-4.6-10.26-2.45zM277.67 231c-4.1.14-7.34 3.58-7.2 7.7l1.13 34c.13 4.02 3.44 7.2 7.44 7.2h.25c4.1-.15 7.32-3.6 7.2-7.7l-1.14-34c-.13-4.1-3.52-7.37-7.7-7.2zM222.46 223.76l-15.84 30.08c-1.92 3.64-.52 8.14 3.12 10.06 1.1.58 2.3.86 3.46.86 2.67 0 5.27-1.45 6.6-3.98l15.84-30.08c1.9-3.64.52-8.14-3.12-10.07-3.65-1.92-8.15-.5-10.06 3.13zM188.14 187l-28.66 18.3c-3.46 2.2-4.5 6.8-2.27 10.28 1.42 2.23 3.84 3.44 6.3 3.44 1.37 0 2.76-.38 4-1.17l28.66-18.3c3.46-2.2 4.5-6.8 2.27-10.28-2.2-3.46-6.8-4.48-10.3-2.27zM135.5 147.6c.2 3.98 3.5 7.07 7.44 7.07h.38l33.96-1.7c4.1-.2 7.28-3.7 7.07-7.82-.2-4.1-3.64-7.26-7.8-7.07l-33.97 1.7c-4.12.2-7.3 3.7-7.08 7.8zM190.67 89.82l-30.34-15.34c-3.67-1.86-8.15-.37-10 3.28-1.86 3.67-.4 8.15 3.27 10l30.35 15.35c1.08.55 2.23.8 3.35.8 2.72 0 5.34-1.5 6.66-4.08 1.86-3.66.38-8.14-3.3-10zM208.1 26.54c-2.3-3.43-6.9-4.37-10.34-2.1-3.43 2.27-4.37 6.9-2.1 10.33l18.77 28.35c1.43 2.17 3.8 3.34 6.22 3.34 1.4 0 2.84-.4 4.1-1.24 3.43-2.27 4.37-6.9 2.1-10.33L208.1 26.53z"/>
</svg>
