<svg xmlns="http://www.w3.org/2000/svg" viewBox="0 0 595.28 595.28">
  <g fill="#010101">
    <path d="M587.87 211.5h-80V43.34h80c4.44 0 7.4-2.96 7.4-7.4 0-4.46-2.95-7.42-7.4-7.42h-87.42c-4.45 0-7.4 2.96-7.4 7.4v89.65c-96.32 3.7-173.36 83.7-173.36 180.76v82.23c-6.7.74-13.4 1.48-20 1.48-40.8-1.48-80.1-14.07-117.8-26.67l-1.5-.74c-65.2-21.48-139.3-3.7-178.6 42.97-3 2.96-2.3 8.15.7 10.37 1.5 1.48 2.9 1.48 4.4 1.48 2.2 0 4.4-.74 5.9-2.96C48.3 372.2 115 356.7 175 376.7l1.5.7c39.24 12.6 79.25 25.9 121.5 27.4 31.1.7 57-8.9 81.46-17.8 12.6-4.5 25.95-9.7 40-13.4 51.9-13.4 106.7 2.2 155.6 42.9 2.97 2.97 8.16 2.23 10.4-.73 2.95-2.96 2.2-8.15-.75-10.37-52.6-43.7-112.6-60-168.9-45.92-.7 0-1.4 0-1.4.78v-54c0-43.7 35.6-79.27 79.3-79.27h94.1c4.5 0 7.4-3 7.4-7.4s-3.7-8.2-7.4-8.2zm-187.43 94.08v55.56c0 .74 0 2.22.74 2.96-8.9 2.96-17.04 5.93-25.2 8.9-14.07 5.18-27.4 10.36-40.73 13.32v-80c0-88.9 70.38-162.25 158.53-165.95v71.12c-51.85.7-93.34 42.9-93.34 94zM416.74 433c-14.82 3.7-28.15 8.9-41.5 14.08-24.44 8.9-48.14 17.78-76.3 17.04-40-1.48-79.26-14.08-117.04-26.67l-1.48-.74c-65.2-21.4-139.27-3.7-178.52 43-2.97 3-2.23 8.2.73 10.4 1.48 1.5 2.96 1.5 4.44 1.5 2.22 0 4.45-.7 5.93-2.9 35.56-42.2 102.23-57.8 162.24-37.8l1.48.8c39.26 12.6 79.27 26 121.5 27.4 31.1.8 57.03-8.9 81.48-17.7 12.6-4.4 25.93-9.6 40-13.3 51.86-13.3 106.68 2.3 155.57 43 2.96 3 8.15 2.3 10.37-.7 2.96-2.9 2.22-8.1-.74-10.3-51.85-45.2-111.86-60.7-168.16-46.62zm0 74.08c-14.82 3.7-28.15 8.9-41.5 14.08-24.44 8.9-48.14 17.78-76.3 17.04-40-1.48-79.26-14.08-117.04-26.67l-1.48-.74c-65.2-21.5-139.27-3.7-178.53 42.9-3 2.9-2.3 8.1.7 10.3 1.5 1.5 2.9 1.5 4.4 1.5 2.2 0 4.4-.8 5.9-3 35.5-42.3 102.2-57.8 162.2-37.8l1.5.7c39.2 12.6 79.2 25.9 121.5 27.4 31.1.7 57-8.9 81.5-17.8 12.6-4.5 25.9-9.7 40-13.4 51.8-13.3 106.6 2.2 155.5 43 2.9 2.9 8.1 2.2 10.3-.8 2.2-3 2.2-8.2-.8-10.4-51.8-45.1-111.8-60.7-168.1-46.6zM47.82 232.24c7.4 10.37 12.6 17.04 11.1 25.93-2.2 13.33-11.1 25.2-22.95 40.74-2.22 3-2.22 8.2 1.48 10.4 1.48.8 2.96 1.5 4.45 1.5 2.22 0 4.44-.7 5.93-2.9 14.08-17.8 23.7-31.1 25.93-48.1 2.22-16.3-5.93-27.4-14.07-37-1.5-2.2-3-4.4-5.2-6.6-14.1-20-12.6-33.3 5.9-51.1 2.9-2.9 2.9-7.4 0-10.3-3-2.9-7.4-2.9-10.4 0-23 23-26 43.7-7.4 70.4 1.4 3 2.9 5.2 5.1 7.4z"/>
    <path d="M144.86 232.24c7.4 10.37 12.6 17.04 11.1 25.93-2.2 13.33-11.1 25.2-22.95 40.74-2.2 3-2.2 8.2 1.5 10.4 1.5.8 3 1.5 4.5 1.5 2.2 0 4.5-.7 6-2.9 14.1-17.8 23.7-31.1 26-48.1 2.3-16.3-5.9-27.4-14-37-1.5-2.2-2.9-4.4-5.2-6.6-14-20-12.6-33.3 6-51.1 3-2.9 3-7.4 0-10.3s-7.4-2.9-10.4 0c-22.9 23-25.9 43.7-7.4 70.4 1.5 3 3 5.2 5.2 7.4zm97.04 0c7.42 10.37 12.6 17.04 11.12 25.93-2.22 13.33-11.1 25.2-22.96 40.74-2.22 3-2.22 8.2 1.48 10.4 1.48.8 2.96 1.5 4.44 1.5 2.22 0 4.45-.7 5.93-2.9 14.1-17.8 23.7-31.1 26-48.1 2.2-16.3-5.9-27.4-13.3-37-1.4-2.2-2.9-4.4-5.2-6.6-14-20-12.6-33.3 6-51.1 3-2.9 3-7.4 0-10.3-2.9-2.9-7.4-2.9-10.3 0-22.9 23-25.9 43.7-7.4 70.4.8 3 2.2 5.2 4.5 7.4z"/>
  </g>
</svg>
