<svg xmlns="http://www.w3.org/2000/svg" viewBox="0 0 595.276 595.28">
  <path d="M49.445 200.836H27.902v21.543h21.543v-21.55zM178.705 28.49H27.902v150.8h150.803V28.49zm-21.543 129.26H49.445V50.03h107.717v107.72zM70.988 330.094H49.445v64.63H92.53V373.18H70.99v-43.086zm64.63-258.52h-64.63v64.63h64.63v-64.63zm-21.543 193.89H92.53v21.544h21.544v-21.545zM92.53 373.182h21.544v-21.544H92.53v21.544zM70.99 523.985h64.63v-64.63H70.99v64.63zm64.63-280.063h-21.543v21.543h21.543v-21.543zm0 150.803h43.087v-21.543H135.62v21.543zM27.902 567.072h150.803V416.27H27.902v150.8zm21.543-129.26h107.717V545.53H49.445V437.812zm21.543-236.976v21.543h107.717v-21.55H70.988zm107.717 43.086h-21.543v21.543h21.543v-21.543zm-43.087 86.173v-21.543h43.087V287.01h-21.543v-21.545H135.62v21.544h-21.544v21.54H92.53v-21.54H70.99v-43.09H49.445v64.63h21.543v21.54h43.086v21.54h64.63v-21.54h-43.086zm64.63-107.716h-21.542v21.54h21.543v-21.54zm21.543 43.08v-21.54h-21.54v21.54h21.54zM200.25 287v21.542h21.54v-21.54h-21.54zm21.54 150.802h-21.54v86.173h21.54v21.544h-21.54v21.54h43.09v-43.08h21.545v-21.54H243.34V480.9h-21.544v-43.09zm21.55-280.064v21.543h21.544V136.2H243.34v-21.54h-21.55V71.575h-21.54v129.26h21.54V157.75h21.544zm21.544-64.63H243.34v21.543h21.542V93.12zm0 193.89h21.544v-64.63h64.63v-21.54h-64.63v-21.54H264.88v21.543h-43.09v43.09h43.087V287zM243.34 308.54h-21.55v43.086h21.546v21.544h21.543V287h-21.55v21.542zm21.54-280.06v21.54h21.546V28.49H264.88zm21.544 107.72v-21.54H264.88v21.544h21.544zm21.545 0h-21.55v43.088h21.54V136.2zm-21.55-86.17v21.544h43.083V50.032H286.42zm43.083 86.175h21.543v-21.543h21.55V93.12h21.542V71.575H372.6V50.032h-21.55v21.543h-21.543v21.543H286.42v21.543h43.087v21.55zM351.05 28.49h-21.543v21.54h21.543V28.49zm-21.543 129.26v21.542h21.543V157.75h-21.543zm64.63 150.802h-21.543v21.543h-43.087V287.01h-21.543v21.542H286.42v21.543h21.544v21.543h86.173v-43.086zM351.05 136.206v21.543h21.544v21.54h21.543v-64.63h-21.543v21.54H351.05zm0 64.63h21.544v-21.543H351.05v21.543zm21.544 43.086H351.05v21.543h-21.543v21.544h43.087v-43.09zM394.137 28.49h-21.543v21.54h21.543V28.49zm0 193.89h-21.543v21.542h21.543V222.38zm0 323.15v21.542h21.544v-43.087H372.6v21.544h21.543zm21.544-280.065v-21.543h-21.54v21.543h21.55zm-21.54 21.545v21.54h43.09v-43.086h-21.55v21.544h-21.54zm43.09 129.26h-21.55v21.54h21.55v-21.54zm21.55-193.89h64.63v-21.545H415.68v21.543h21.544v43.085h21.544V222.38zm0 107.714V308.55h-21.55v21.544h21.546zm21.545-43.086h-21.55v21.542h21.544v-21.54zM523.4 71.575h-64.63v64.63h64.63v-64.63zM501.857 243.92H480.31v21.544h21.545V243.92zm-21.544 86.174H458.77v21.543h21.543v21.544h21.545v-64.63H480.31v21.55zm0 64.63V373.18h-43.086v-21.543H394.14v21.544h-86.173v-21.54H286.42v43.09h64.63v21.55h21.544v43.087H351.05v-21.55h-21.543v21.545H286.42v-21.55h43.087v-21.54h-64.63v-21.544h-21.543v-21.543H221.79V351.64h-43.085v21.543h21.543v43.087h21.542v21.54h43.086v21.54h-21.543v21.55h43.087v21.54h21.543v21.54h21.543v21.544h-64.63v21.542h86.173V523.98h21.54v-21.54h64.63V480.9h21.54v21.543h21.54V480.9h21.54v43.086h21.542v-21.543h21.544v43.087h-43.08v-21.544H458.76v-21.543h-21.54v64.63h129.26V480.9h-43.085v-21.544h-21.543v-21.544h43.087v21.544h21.54V416.27h-43.09v-43.09h-21.54v21.543h-21.54zM351.05 502.442h-21.543v-21.544h21.543v21.544zm107.718-43.087h-64.63v-64.63h64.63v64.63zm86.174-236.976h-21.544v43.08h21.544V287h-43.087v21.542h21.543v43.085h21.544v21.544h21.543v-43.08h-21.543v-21.54h21.543v-64.63h-21.543v-21.54zM415.682 28.49v150.8h150.803V28.49H415.68zm129.26 129.26H437.224V50.03h107.718v107.72z"/>
</svg>
