<svg xmlns="http://www.w3.org/2000/svg" viewBox="0 0 595.28 595.28">
  <path fill="#010101" d="M104.96 63.96c0 26.8 21.8 48.6 48.6 48.6s48.6-21.8 48.6-48.6-21.8-48.6-48.6-48.6-48.6 21.8-48.6 48.6zm77.77 0c0 16.08-13.08 29.16-29.16 29.16S124.4 80.04 124.4 63.96s13.1-29.16 29.17-29.16c16.08 0 29.16 13.08 29.16 29.16zM303 392.3c22.08 17.84 47.1 21.6 64.27 21.6 2.7 0 5.16-1 7.02-2.85l9.7-9.72c2-2 3-4.74 2.8-7.54-.9-12.7-5.9-44.5-32.9-65.4-25.9-20-73.7-12-75.7-11.6-2.6.4-4.9 1.9-6.4 4.1-1.5 2.2-2 4.9-1.5 7.5.4 1.8 10 45.6 32.6 63.8zm39.04-48.47c18.3 14.13 23.5 35.25 24.98 47l-3.56 3.55c-13.75-.53-32.13-4.18-48.26-17.2-10.94-8.84-18.86-28.73-23.02-42.42 14.93-1.08 37.57-.4 49.86 9.07zm154.6 57.5c1.5 1.5 3.43 2.46 5.5 2.75 3.37.48 7.66.87 12.56.87 12.04 0 27.8-2.42 42.7-12.06 25.34-16.5 32.73-60.1 33.5-65 .78-5.1-2.53-9.9-7.54-11-2.1-.5-51.96-11.1-76.76 12.1-20.44 19-22.56 45.3-22.53 55.7 0 2.5 1.03 5 2.85 6.8l9.72 9.7zm23.22-58.1c11.44-10.66 34.87-10.6 49.83-8.85-3.5 13.82-10.9 34.4-22.9 42.2-14 9.04-29.4 9.52-38.9 8.6l-4.4-4.37c.5-9.3 3.4-25.6 16.2-37.5zM293.4 268.4c4.45 3.65 14.66 8.65 28.55 8.65 8.82 0 19.13-2 30.4-7.67 3.3-1.65 5.36-5.02 5.36-8.7v-12.03c0-1.45-.3-2.9-.9-4.2-2.4-4.97-11.9-21.93-34-31.55-14-6.1-39.6-1.6-44.6-.62-5.1 1-8.5 5.85-7.7 11 .5 3.42 5.5 33.36 23.1 45.12zm21.55-37.67c13.83 6 20.65 15.6 23.3 20.3v3.35c-18.24 7.05-30 .6-32.3-.87-.44-.4-.9-.7-1.43-1-5.8-3.6-10.22-13.6-12.8-22.5 8.83-.9 18.77-1.1 23.23.9z"/>
  <path fill="#010101" d="M533.43 235.64c2.64-3.84 5.1-7.42 7.32-10.75 2.58-3.9 2.07-9-1.2-12.3l-19.45-19.5c-3.6-3.6-9.32-3.8-13.17-.6-7.4 6.3-14.3 13.2-20.54 20.5-4.4 5.1-10 11.1-15.8 17.4-9.3 10-17.1 18.5-23 25.8-3.9-8.4-8.6-16.2-14.3-23.5-6.1-7.9-13.2-15-21.2-21.2-2.6-2-6-2.6-9.1-1.58l-29 9.86c-3 .97-5.2 3.27-6.2 6.2-.9 2.93-.5 6.13 1.3 8.64 12.2 17.2 21.53 35.97 27.8 55.68 5.4 17.03 8.23 34.26 9.24 55.86 3.12 65.9-12.4 149.43-19.24 182.3l19 3.93c7-33.57 22.9-119 19.7-187.1-1.1-23.36-4.2-42.1-10.1-60.8-5.6-17.57-13.4-34.4-23.3-50.2l12-4c5.05 4.4 9.7 9.25 13.75 14.5 8.18 10.5 14.15 22.44 17.77 35.5 1.15 4.02 4.7 6.9 8.9 7.1 4.1.27 8-2.2 9.54-6.1 3.1-7.8 18.45-24.35 30.75-37.63 6-6.5 11.74-12.7 16.27-18 3.63-4.3 7.55-8.46 11.67-12.4l7.3 7.26-2.7 3.94c-19.8 28.8-49.65 72.3-62.3 128.84-13 58.4-13 120.3 0 179.2l19-4.2c-12.4-56.1-12.4-115.2 0-170.8 11.8-52.9 40.4-94.6 59.35-122.1z"/>
  <path fill="#010101" d="M153.28 443.06c18.07.5 18.07.5 78.05 37.62 16.25 10.06 36.74 22.73 62.98 38.73 83.9 51.2 115.4 66.8 140.1 69.5 5.2.6 10.3.9 15.5.9 44.7 0 91-20.6 137.8-61.5l-12.8-14.7c-48 41.9-94.6 60.8-138.3 56-21.1-2.3-52-17.8-132.1-66.7-26.2-15.9-46.6-28.6-62.8-38.6-62-38.3-64.4-39.8-87.7-40.5-50.7-1.6-102.2 32.4-154 100.9l15.5 11.7c47.8-63.1 94.2-94.4 137.8-93.3zM506.36 148.6l19.44 19.44c1.85 1.86 4.34 2.85 6.87 2.85 1.32 0 2.65-.3 3.9-.9 1.2-.6 3.16-1.2 5.55-1.9 13.33-4.3 38.12-12.4 47.85-31.8 11.4-22.8.97-54.7.53-56.1-1.18-3.5-4.25-6.1-7.92-6.6-4.05-.6-40.12-4.9-56.9 12.6-20.23 21-23.36 52.7-21.76 58.1.46 1.5 1.3 3 2.44 4.1zm33.32-48.74c6.33-6.6 22.17-8.03 34.02-7.4 2.17 9.47 4.04 24.9-1.12 35.2-6.08 12.16-25.84 18.57-36.45 22l-.92.3-12.1-12.13c.9-7.56 4.6-25.43 16.6-37.97zm-109.2 4.36c-3.47 2.06-33.9 21-33.9 47.22 0 26.83 23.52 48.6 38.88 48.6 15.36 0 38.88-21.77 38.88-48.6 0-26.24-30.43-45.16-33.9-47.22-3.07-1.84-6.88-1.84-9.96 0zm24.43 47.22c0 16.06-14.8 28.75-19.3 29.16-4.7-.4-19.5-13.1-19.5-29.16 0-10.33 11.6-21.24 19.5-27.14 7.9 5.88 19.5 16.73 19.5 27.14zM27.2 112.56c0 39.6 29.74 72.36 68.04 77.16v179.05c0 18.04 13.4 33.52 30.55 35.24 1.1.2 2.2.2 3.4.2 8.4 0 16.6-3.1 22.8-8.8.5-.4 1-.9 1.5-1.4.5.5.9 1 1.5 1.4 7.1 6.5 16.7 9.6 26.3 8.7 17.1-1.7 30.5-17.2 30.5-35.2V189.7c38.3-4.8 68-37.57 68-77.16V34.8c0-16.1-13.1-29.17-29.2-29.17s-29 13.07-29 29.17v58.3c0 21.45-17.5 38.9-38.9 38.9h-58.3c-21.5 0-38.9-17.45-38.9-38.9V34.8c0-16.1-13.1-29.17-29.2-29.17S27.2 18.7 27.2 34.8v77.76zM46.64 34.8c0-5.37 4.36-9.73 9.72-9.73s9.72 4.36 9.72 9.72v58.3c0 32.1 26.16 58.3 58.32 58.3h58.32c32.17 0 58.32-26.2 58.32-58.3V34.8c0-5.37 4.36-9.73 9.72-9.73s9.72 4.36 9.72 9.72v77.7c0 32.1-26.16 58.3-58.32 58.3-5.37 0-9.72 4.3-9.72 9.7v188.2c0 8.1-5.73 15.1-13.04 15.9-4.25.4-8.23-.9-11.32-3.7-3.1-2.8-4.8-6.7-4.8-10.8V258.3h-19.44v111.8c0 4.18-1.7 8-4.8 10.83-3.1 2.8-7.15 4.1-11.3 3.68-7.33-.7-13.06-7.7-13.06-15.9V180.6c0-5.36-4.36-9.7-9.72-9.7-32.17 0-58.32-26.17-58.32-58.33V34.8z"/>
</svg>
