<svg xmlns="http://www.w3.org/2000/svg" viewBox="0 0 595.28 595.28">
  <g fill="#010101">
    <path d="M73.72 142.42c-8.55-7.25-20.83-12.3-35.78-12.3h-26.6L0 126.87v7.57c0 20.7 20.62 41.07 41.32 41.07h26.8v4.6c-7.6 1.7-20.94 7.5-28.94 16.6-9.6 10.9-13.12 25.4-11.33 39.8l30.88 245C60 491.6 69.13 501 79.36 501h.2c10.23 0 18.88-9.43 20.15-19.57l30.4-244.1c1.8-14.4-4.5-29.3-14.1-40.17-8-9.06-17.6-15.3-32.7-17v-29c0-1.25 3.9 1.76 4 1.76h30.4c20.7 0 33.8-22.27 33.8-43.27v-2.13H121c-22.53-.03-41.5 14.27-47.25 34.97zm-32.4 17.97c-9.76 0-18.06-7.6-21.14-15.2h17.77c6.5 0 25.07 0 31.63 15.1H41.32zm65.2 48.9c6.7 7.6 9.84 16.8 8.58 26.9l-8.27 67.9H75.7v15.1h29.25l-12.3 98.3H75.7v15.1h15.06l-6.06 48.5c-.33 2.6-2.53 4.5-5.14 4.5h-.2c-2.6 0-4.8-2-5.14-4.6L60.6 372h15.1v-15h-17l-12.28-98.3h44.4v-15.2h-46.3l-.7-7.36c-1.25-10.07 1.88-19.33 8.6-26.94 6.7-7.6 16.4-11.1 26.54-11.1h1c10.14.03 19.82 3.5 26.55 11.1zm11.08-71.7H92.72c6.1-7.6 16.48-15.2 28.24-15.2h17.82c-3.02 7.5-11.38 15.1-21.18 15.1zm154.82 251.5v30l51.87-26.7c13.3-7.1 23.8-24.4 23.8-44.1v-30.1L296.2 345c-13.3 7.1-23.8 24.43-23.8 44.16zm30.92-30.8l29.62-14.8v4.8c0 13.7-7.6 26.4-15.78 30.8l-29.62 14.8V389c0-13.8 7.6-26.46 15.78-30.8zm-62.28-13.4l-51.9-26.7v30.1c0 19.7 10.5 37 23.8 44.1l51.88 26.6v-30c0-19.8-10.47-37.1-23.78-44.2zm8.67 49l-29.62-14.8c-8.1-4.4-15.7-17-15.7-30.8v-4.9l29.6 14.8c8.2 4.3 15.8 17 15.8 30.8v4.8zm22.7 70.8v30.1l51.86-26.7c13.3-7.1 23.8-24.5 23.8-44.2v-30l-51.9 26.6c-13.3 7.1-23.8 24.4-23.8 44.1zm30.9-30.8l29.63-14.8v4.9c0 13.7-7.6 26.4-15.78 30.8l-29.62 14.8v-4.8c0-13.8 7.6-26.4 15.78-30.8zm-62.27-13.4l-51.9-26.7V424c0 19.73 10.5 37.07 23.8 44.16l51.88 26.6v-30.1c0-19.75-10.47-37.08-23.78-44.17zm8.67 49l-29.63-14.7c-8.1-4.4-15.7-17.1-15.7-30.8v-4.9l29.6 14.8c8.2 4.3 15.8 17 15.8 30.8v4.8zm22.7-156.2v30.1l51.86-26.7c13.3-7.1 23.8-24.5 23.8-44.2v-30.1L296.2 269c-13.3 7.1-23.8 24.44-23.8 44.2zm30.9-30.8l29.63-14.8v4.9c0 13.7-7.6 26.4-15.78 30.8l-29.62 14.8v-4.9c0-13.8 7.6-26.5 15.78-30.8zm-62.27-13.4l-51.9-26.7v30c0 19.72 10.5 37.06 23.8 44.15l51.88 26.65v-30.1c0-19.7-10.47-37.05-23.78-44.15zm8.67 49l-29.62-14.8c-8.1-4.4-15.7-17.1-15.7-30.8v-4.9l29.6 14.8c8.2 4.3 15.8 17 15.8 30.8v4.8zm22.7-80.6v30.1L324.3 241c13.3-7.1 23.8-24.4 23.8-44.13v-30l-51.9 26.66c-13.3 7.1-23.8 24.45-23.8 44.16zm30.9-30.8l29.63-14.8v4.9c0 13.8-7.6 26.4-15.78 30.8l-29.62 14.8v-4.9c0-13.8 7.6-26.46 15.78-30.8zm-62.27-13.4l-51.9-26.66V197c0 19.74 10.5 37.07 23.8 44.16l51.88 26.66v-30.08c0-19.74-10.47-37.07-23.78-44.16zm8.67 49l-29.62-14.8c-8.1-4.34-15.7-17-15.7-30.8V192l29.6 14.8c8.2 4.38 15.8 17.04 15.8 30.8v4.87zM560 254.92v-27.8l-42.95 24c-11.9 6.4-17.6 21.8-17.6 39.3v27.8l42.95-23.9C554.3 288 560 272.5 560 255zm-24.72 25.9l-20.7 12.1v-2.6c0-11.6 2.77-22.22 9.57-25.9l20.7-12.1v2.6c0 11.7-2.77 22.3-9.57 25.9zM290.3 122.4l-22.43-28.07-22.42 28.07c-12.02 15.05-12.02 38.65 0 53.7l22.42 28.1 22.43-28.1c12.02-15.05 12.02-38.65 0-53.7zm-11.82 44.27l-10.6 13.2-10.6-13.3c-7.53-9.45-7.53-25.4 0-34.83l10.6-13.27 10.6 13.28c7.52 9.45 7.52 25.4 0 34.84z"/>
    <path d="M532.8 317.42c-8.68 0-17.1 1.77-25.04 5.25-7.57 3.33-15.5 3.66-21.7.77-15.9-7.45-35.97-7.95-52.3-1.27-23.32 9.54-40.24 33.67-40.24 60.02V395c0 54.5 42.67 101.15 95.52 103.93 1.8.1 4.23 1.9 6 1.9h.33c26.47 0 51.56-12.07 70.36-30.77 18.8-18.75 29.25-44.53 29.25-71 0-7.7.1-9.36.16-10.48.06-1.13.14-2.4.14-8.5 0-34.45-28.03-62.73-62.48-62.73zm47.27 69.92c-.08 1.24-.16 2.54-.16 10.9 0 22.42-8.7 43.5-24.7 59.4-15.9 15.86-37 24.6-59.5 24.6-1.5 0-4.3-.04-5.8-.1-44.8-2.4-81.2-40.62-81.2-87.07V382.2c0-20.3 13.2-38.77 30.9-46 5.9-2.4 12.7-3.63 19-3.63 7.1 0 14.5 1.58 21 4.6 10.2 4.7 22.9 4.45 34.4-.64 6-2.62 12.48-3.97 19-3.97 26.1 0 47.4 21.25 47.4 47.36v7.42z"/>
  </g>
</svg>
