<svg xmlns="http://www.w3.org/2000/svg" viewBox="0 0 595.28 595.28">
  <path fill="#010101" d="M75.76 140.7h32.47v443.75c0 5.98 4.85 10.82 10.82 10.82h357.17c5.98 0 10.82-4.85 10.82-10.82V140.7h32.47c6 0 10.85-4.85 10.85-10.82V64.94c0-5.98-4.85-10.82-10.82-10.82H357.18v-43.3c0-5.98-4.85-10.82-10.82-10.82h-97.4c-6 0-10.83 4.85-10.83 10.82v43.3H75.76c-5.98 0-10.82 4.84-10.82 10.8v64.95c0 6 4.84 10.83 10.82 10.83zM465.4 573.63H129.88V140.7H465.4v432.93zM259.76 21.65h75.76v32.47h-75.76V21.65zM86.58 75.75h422.1v43.3H86.58v-43.3z"/>
  <path fill="#010101" d="M184 535.75c5.97 0 10.8-4.85 10.8-10.82v-324.7c0-5.98-4.84-10.82-10.8-10.82-6 0-10.83 4.88-10.83 10.85v324.7c0 5.97 4.85 10.82 10.82 10.82zm75.76 0c5.98 0 10.82-4.85 10.82-10.82v-324.7c0-5.98-4.85-10.82-10.82-10.82-5.98 0-10.82 4.88-10.82 10.85v324.7c0 5.97 4.84 10.82 10.82 10.82zm75.76 0c5.98 0 10.82-4.85 10.82-10.82v-324.7c0-5.98-4.84-10.82-10.82-10.82s-10.82 4.88-10.82 10.85v324.7c0 5.97 4.84 10.82 10.82 10.82zm75.76 0c5.98 0 10.82-4.85 10.82-10.82v-324.7c0-5.98-4.84-10.82-10.82-10.82s-10.82 4.88-10.82 10.85v324.7c0 5.97 4.84 10.82 10.82 10.82z"/>
</svg>
