<?xml version="1.0" encoding="utf-8"?>
<!-- Generator: Adobe Illustrator 15.0.0, SVG Export Plug-In . SVG Version: 6.00 Build 0)  -->
<!DOCTYPE svg PUBLIC "-//W3C//DTD SVG 1.1//EN" "http://www.w3.org/Graphics/SVG/1.1/DTD/svg11.dtd">
<svg version="1.1" id="Layer_1" xmlns="http://www.w3.org/2000/svg" xmlns:xlink="http://www.w3.org/1999/xlink" x="0px" y="0px"
	 width="595.28px" height="595.28px" viewBox="123.31 0 595.28 595.28" enable-background="new 123.31 0 595.28 595.28"
	 xml:space="preserve">
<path fill="#010101" d="M312.21,110.91c0.24-0.18,0.49-0.34,0.75-0.49c4.97-2.9,6.6-9.04,3.72-13.99c-1.88-3.21-5.17-5.13-8.8-5.13
	c-1.82,0-3.57,0.48-5.2,1.43c-62.52,35.93-107.27,94.24-126.02,164.21c-7.89,29.37-10.83,59.38-8.75,89.2
	c2.08,29.77,9.14,58.86,20.97,86.47c1.13,2.62,0.81,5.65-0.84,7.98c-1.55,2.19-4.06,3.48-6.72,3.48c-0.17,0-0.35,0-0.52-0.02
	l-34.88-2.22c-0.02,0-0.04,0-0.06,0c-0.24-0.02-0.49-0.03-0.73-0.03c-5.27,0-10.09,4.35-10.53,9.5c-0.4,6.14,4.67,10.83,9.5,11.22
	l66.45,4.44h1.23c1.08,0,1.55,0,2.33-0.23c0.7-0.43,1.45-0.76,2.25-0.97c0.71-0.61,1.42-1.08,2.02-1.48
	c0.07-0.04,0.14-0.09,0.22-0.15c0.31-0.51,0.6-0.94,0.84-1.3c0.3-0.45,0.46-0.69,0.6-0.96l29.68-60.07
	c1.18-2.37,1.35-5.08,0.49-7.66s-2.62-4.65-4.96-5.82c-1.35-0.68-2.81-1.02-4.35-1.02c-3.85,0-7.42,2.14-9.09,5.46l-12.62,25.92
	c-1.38,2.84-4.26,4.62-7.39,4.62c-0.13,0-0.26,0-0.39-0.01c-3.28-0.15-6.16-2.25-7.31-5.32
	C160.34,301.54,205.81,172.57,312.21,110.91z M700.68,511.32l-28.59-59.38c-0.58-0.88-0.95-1.72-1.2-2.39l-1.93-1.94l-0.7-0.67
	c-0.05-0.05-0.09-0.09-0.14-0.14c-0.48-0.48-1.17-0.98-1.83-1.32c-1.19-0.12-2.19-0.44-2.98-0.7h-2.43l-66.5,4.43
	c-2.75,0.2-5.25,1.44-7,3.51c-1.78,2.1-2.64,4.85-2.44,7.74c0.39,5.49,4.77,9.47,10.41,9.47c0.28,0,0.56-0.01,0.84-0.03l28.88-2.23
	c0.21-0.02,0.42-0.02,0.63-0.02c3.02,0,5.83,1.67,7.26,4.37c1.53,2.89,1.21,6.41-0.83,8.97c-33.43,41.99-78.54,71.44-130.46,85.18
	c-21.46,5.62-43.36,8.46-65.12,8.46c-43.17,0-86.16-11.41-124.32-32.99c-0.03-0.02-0.06-0.04-0.09-0.05
	c-1.63-0.95-3.38-1.44-5.2-1.44c-3.62,0-6.9,1.92-8.78,5.15c-1.41,2.41-1.8,5.16-1.12,7.75c0.69,2.6,2.39,4.81,4.8,6.22
	c41.4,23.55,87.95,36,134.63,36c24.36,0,47.45-3.06,70.56-9.37c0.04-0.01,0.08-0.02,0.12-0.03c29.27-7.49,56.75-19.77,81.67-36.5
	c24.77-16.63,46.44-37.27,64.4-61.34c1.56-2.09,4.01-3.3,6.59-3.3c0.24,0,0.48,0.01,0.72,0.03c2.84,0.25,5.35,1.96,6.62,4.5
	l15.62,31.14c0.06,0.11,0.11,0.22,0.16,0.34c1.81,4.07,5.89,5.51,8.83,5.51c1.73,0,2.99-0.44,3.54-0.81c0.3-0.2,0.61-0.38,0.93-0.54
	c4.86-2.43,6.91-8.6,4.48-13.46C700.72,511.39,700.7,511.36,700.68,511.32z M364.92,459.09c18.87,16.3,45.24,25.64,72.34,25.64
	c27.13,0,53.5-9.35,72.38-25.65c22.04-19.03,33.7-46.83,33.7-80.4c0-38.32-25.81-75.18-50.76-110.82l-1.19-1.7l-1.11-1.58
	c-21.94-31.02-42.66-60.31-42.66-86.99c0-5.79-4.55-10.32-10.36-10.32c-5.89,0-10.33,4.44-10.33,10.33
	c0,25.36-19.1,52.93-39.32,82.11c-1.47,2.12-2.95,4.26-4.44,6.41c-0.03,0.05-0.06,0.09-0.1,0.14
	c-14.74,20.46-26.75,37.55-36.09,55.62c-10.61,20.54-15.77,39.11-15.77,56.79C331.23,412.26,342.88,440.06,364.92,459.09z
	 M400.2,278.16c1.28-1.79,2.57-3.59,3.86-5.39c9.74-13.57,18.95-26.38,25.87-40.23c1.36-2.71,4.09-4.46,7.13-4.55
	c0.08,0,0.15,0,0.23,0c2.94,0,5.67,1.58,7.14,4.15c6.48,11.35,14.4,23.03,22.06,34.32c2.63,3.87,5.34,7.87,7.97,11.83
	c22.62,31.39,48.22,66.94,48.22,100.4c0,63.03-46,85.4-85.4,85.4s-85.4-22.37-85.4-85.4C351.92,345.13,377.57,309.55,400.2,278.16z
	 M470.12,58.2c-4.28-0.29-7.66-3.84-7.66-8.19c0-1.62,0.48-3.23,1.38-4.58l19.28-28.92c0.06-0.1,0.13-0.19,0.2-0.29
	c1.49-2.04,2.06-4.61,1.59-7.22c-0.51-2.89-2.18-5.4-4.69-7.07c-0.09-0.06-0.18-0.13-0.28-0.19C478.39,0.6,476.51,0,474.51,0
	c-3.52,0-6.83,1.81-8.85,4.84l-36.83,55.24l-1.29,2.53c-0.12,0.62-0.3,1.24-0.56,1.82c-0.02,0.27-0.02,0.76-0.02,1.13
	c0,0.37,0,0.86,0.02,1.13c0.26,0.59,0.45,1.22,0.57,1.85l1.26,2.52l36.74,55.1c2.08,2.85,5.44,4.62,8.81,4.62
	c2.44,0,4.27-0.44,5.42-1.32c0.04-0.03,0.09-0.07,0.13-0.1c4.25-3.08,6.81-9.28,3.21-14.7l-16.25-23.7
	c-1.86-2.72-1.92-6.29-0.15-9.07c1.53-2.39,4.15-3.8,6.93-3.8c0.45,0,0.9,0.04,1.36,0.11c122.63,20.47,211.64,124.69,211.64,247.8
	c0,5.89,4.44,10.33,10.33,10.33s10.33-4.45,10.33-10.34C707.31,189.47,605.37,74.41,470.12,58.2z"/>
</svg>
