<svg xmlns="http://www.w3.org/2000/svg" width="595.275" height="595.281" viewBox="123.307 0 595.275 595.281">
  <path stroke="#000" stroke-miterlimit="10" d="M326.63 153.65c17.52-8.522 36.38-14.72 56.17-18.25l11.59-11.45 52.12-52.34c-8.432-.77-16.96-1.17-25.59-1.17l.01-.02c-52.51 0-101.61 14.6-143.47 39.97 13.82 17.02 30.45 31.68 49.17 43.26zm309.07 18.687c-13.04-15.94-27.81-30.41-44.028-43.1-13.83 15.93-29.97 29.8-47.89 41.11-33.28 21-72.71 33.15-115.03 33.15v-.02c-8.18 0-16.25-.46-24.2-1.35L574.03 32.63 541.367 0l-135.21 135.77-54.268 53.63c-16.64-6.34-32.29-14.68-46.66-24.72-17.11-11.97-32.41-26.35-45.39-42.67-16.79 12.01-32.19 25.85-45.9 41.23-43.7 49.01-70.25 113.618-70.25 184.43 0 108.187 61.85 201.917 152.27 247.605h249.836c90.398-45.68 152.398-139.397 152.398-247.587.002-66.52-23.428-127.57-62.498-175.35zm-105.515 361.35H311.71c-63.712-37.445-106.43-106.676-106.43-186.03 0-54.09 19.88-103.47 52.72-141.29 47.03 36.79 106.27 58.72 170.74 58.72 60.078 0 115.688-19.12 161.1-51.59 29.258 36.81 46.728 83.43 46.728 134.18.006 79.33-42.688 148.557-106.383 186.01zM487.708 142.55c12.51 4.06 24.52 9.23 35.91 15.4 19.22-10.76 36.44-24.69 50.95-41.08-12.44-8.3-25.59-15.61-39.34-21.84l-47.52 47.52z"/>
</svg>
